<?xml version="1.0" encoding="utf-8"?>
<!-- Svg Vector Icons : http://www.onlinewebfonts.com/icon -->
<!DOCTYPE svg PUBLIC "-//W3C//DTD SVG 1.1//EN" "http://www.w3.org/Graphics/SVG/1.1/DTD/svg11.dtd">
<svg version="1.1" xmlns="http://www.w3.org/2000/svg" xmlns:xlink="http://www.w3.org/1999/xlink" x="0px" y="0px" viewBox="0 0 1000 1000" enable-background="new 0 0 1000 1000" xml:space="preserve">
<metadata> Svg Vector Icons : http://www.onlinewebfonts.com/icon </metadata>
<g><path d="M726.9,854.4H621l-0.7,6.8c-0.3,44.8,34.6,79.5,77.4,79.5c42.8,0,77.7-34.6,77.7-77.3c0-4.3-0.5-8.9-1.4-13.9C758.7,852.4,743,854.4,726.9,854.4z"/><path d="M678.4,271.6h-342c-87.1,0-157.8,70.8-157.8,157.8v131.5c0,87.1,70.8,157.8,157.8,157.8h342c87.1,0,157.8-70.8,157.8-157.8V429.4C836.3,342.4,765.5,271.6,678.4,271.6z M311.7,496.8c-31.3,0-56.7-25.2-56.7-56.3c0-31.1,25.4-56.3,56.7-56.3c31.3,0,56.7,25.2,56.7,56.3C368.4,471.6,343.1,496.8,311.7,496.8z M688.3,496.8c-31.3,0-56.7-25.2-56.7-56.3c0-31.1,25.4-56.3,56.7-56.3c31.3,0,56.7,25.2,56.7,56.3C745,471.6,719.6,496.8,688.3,496.8z"/><path d="M782,162.4l-91.4-7.6H323.8h-50.7c-14.3,0-28.6,1.4-42.5,4.3c-97.4,19.9-168,106.6-168,206.2v226.1c0,93.2,62.6,176.3,152.2,202.1c19.3,5.6,38.9,8.4,58.3,8.4h131.5h190.1h132.2c19.3,0,38.9-2.8,58.3-8.4c89.6-25.8,152.2-108.9,152.2-202.1V365.3C937.4,270,873.7,187.2,782,162.4z M888.9,560.9c0,116.2-94.2,210.5-210.5,210.5h-342c-116.2,0-210.5-94.2-210.5-210.5V429.4c0-116.2,94.2-210.5,210.5-210.5h342c116.2,0,210.5,94.2,210.5,210.5V560.9z"/><path d="M273.1,854.4c-16.2,0-31.8-2-47.1-4.9c-0.9,5-1.4,9.6-1.4,13.9c0,42.6,34.7,77.3,77.3,77.3c42.6,0,77.3-34.7,77.3-77.3l-0.9-9.1H273.1z"/><path d="M631.6,440.5c7.3,0,13.2,5.9,13.2,13.2c0,7.3-5.9,13.2-13.2,13.2V440.5z"/><path d="M255,440.5c7.3,0,13.2,5.9,13.2,13.2c0,7.3-5.9,13.2-13.2,13.2V440.5z"/><path d="M678.4,218.9h-342c-116.2,0-210.5,94.2-210.5,210.5v131.5c0,116.2,94.2,210.5,210.5,210.5h342c116.2,0,210.5-94.2,210.5-210.5V429.4C888.9,313.2,794.6,218.9,678.4,218.9z M836.3,560.9c0,87.1-70.8,157.8-157.8,157.8h-342c-87.1,0-157.8-70.8-157.8-157.8V429.4c0-87.1,70.8-157.8,157.8-157.8h342c87.1,0,157.8,70.8,157.8,157.8V560.9z"/><path d="M790.8,110.3l71.8-41.7c13.4-7.8,18-25,10.3-38.5C865.1,16.6,848,12,834.6,19.8l-142,82.4H323.8L164.4,10.4c-13.5-7.8-30.8-3.2-38.6,10.3s-3.2,30.7,10.3,38.5l83.9,48.3C100.2,132.1,10,238.1,10,365.3v226.1c0,110.6,68.4,205,165.1,243.9l-0.7,3.9c-1.6,8.5-2.4,16.5-2.4,24.4c0,71.6,58.3,129.9,129.9,129.9c71.6,0,129.9-58.3,129.9-129.9c0-2.6-0.3-5.4-0.7-9.1h137.1c-0.4,3-0.7,6-0.7,9.1c0,71.6,58.5,129.9,130.3,129.9c71.8,0,130.3-58.3,130.3-129.9c0-7.8-0.8-15.8-2.4-24.4l-0.7-3.9C921.6,796.3,990,702,990,591.4V365.3C990,242,905.1,138.9,790.8,110.3z M301.9,940.8c-42.6,0-77.3-34.6-77.3-77.3c0-4.3,0.5-8.9,1.4-13.9c15.3,2.8,30.9,4.9,47.1,4.9h105.2l0.8,9C379.2,906.1,344.5,940.8,301.9,940.8z M697.7,940.8c-42.8,0-77.7-34.6-77.4-79.5l0.7-6.8h105.9c16.1,0,31.8-2,47.1-4.9c0.9,5,1.4,9.6,1.4,13.9C775.4,906.1,740.5,940.8,697.7,940.8z M937.4,591.4c0,93.2-62.6,176.3-152.2,202.1c-19.3,5.6-38.9,8.4-58.3,8.4H594.7H404.5H273.1c-19.3,0-38.9-2.8-58.3-8.4C125.2,767.7,62.6,684.5,62.6,591.4V365.3c0-99.6,70.7-186.3,168-206.2c13.8-2.8,28.1-4.3,42.5-4.3h50.7h366.7l91.4,7.6c91.7,24.8,155.4,107.6,155.4,202.9V591.4z"/></g>
</svg>