<?xml version="1.0" encoding="iso-8859-1"?>
<!-- Generator: Adobe Illustrator 19.0.0, SVG Export Plug-In . SVG Version: 6.00 Build 0)  -->
<svg version="1.1" id="Layer_1" xmlns="http://www.w3.org/2000/svg" xmlns:xlink="http://www.w3.org/1999/xlink" x="0px" y="0px"
	 viewBox="0 0 459.12 459.12" style="enable-background:new 0 0 459.12 459.12;" xml:space="preserve">
<g>
	<path style="fill:#37495E;" d="M55.115,364.816v69.94c0,4.42-3.58,8-8,8s-8-3.58-8-8v-85.94L55.115,364.816z"/>
	<path style="fill:#37495E;" d="M305.115,385.996v48.76c0,4.42-3.58,8-8,8s-8-3.58-8-8v-48.76H305.115z"/>
	<path style="fill:#F4A026;" d="M410.465,95.346c-1.79-1.96-9.35-9.52-11.31-11.31c-70.13-64.41-177.93-64.86-248.59-1.35
		c16.05,16.27,2.08,30.37,18.37,46.66c16.35,16.35,30.49,2.2,46.85,18.56l0.1,0.1c16.19,16.3,2.14,30.42,18.45,46.74
		c14.22,14.21,26.76,5.39,40.53,13.58c2.07,1.22,4.18,2.84,6.32,4.98l0.01,0.01c2.14,2.14,3.76,4.25,4.98,6.32
		c8.18,13.77-0.64,26.31,13.57,40.51c16.33,16.33,30.44,2.27,46.75,18.47l0.1,0.1c16.35,16.35,2.21,30.49,18.57,46.85
		c16.28,16.28,30.37,2.32,46.65,18.37C475.335,273.276,474.885,165.476,410.465,95.346z"/>
	<path style="fill:#37495E;" d="M346.495,278.615c-16.31-16.2-30.42-2.14-46.75-18.47c-14.21-14.2-5.39-26.74-13.57-40.51
		c-1.22-2.07-2.84-4.18-4.98-6.32l-0.01-0.01c-2.14-2.14-4.25-3.76-6.32-4.98c-13.77-8.19-26.31,0.63-40.53-13.58
		c-16.31-16.32-2.26-30.44-18.45-46.74c66.93-63.47,145.06-90.39,182.91-63.61c2.18,1.54,4.23,3.26,6.14,5.17
		c1.91,1.91,3.63,3.96,5.17,6.14C436.885,133.556,409.965,211.696,346.495,278.615z"/>
	<path style="fill:#37495E;" d="M283.195,211.316c2.14,2.14,3.76,4.25,4.98,6.32l-130.35,130.36h-22.5
		c0.23-0.32,141.54-141.67,141.54-141.67c2.07,1.22,4.18,2.84,6.32,4.98L283.195,211.316z"/>
	<path style="fill:#37495E;" d="M424.145,81.666l-15.68,15.68l-0.36,0.36c-1.54-2.18-3.26-4.23-5.17-6.14
		c-1.91-1.91-3.96-3.63-6.14-5.17l0.36-0.36l15.68-15.68c3.12-3.12,8.19-3.12,11.31,0C427.275,73.476,427.275,78.546,424.145,81.666
		z"/>
	<path style="fill:#EFEFEF;" d="M381.025,416.906c-4.39,4.39-10.15,6.59-15.91,6.59s-11.51-2.2-15.91-6.59l-25.91-25.91H85.615
		c-5.97,0-11.69-2.37-15.91-6.59l-14.59-14.59l-16-16l-32.53-32.53c-8.78-8.79-8.78-23.03,0-31.82c8.79-8.79,23.03-8.79,31.82,0
		l56.53,56.53h237.68c5.97,0,11.69,2.37,15.91,6.59l32.5,32.5C389.815,393.875,389.815,408.115,381.025,416.906z"/>
	<path style="fill:#3E81C8;" d="M160.117,199.386c0,1.01-0.05,2.01-0.14,3H45.867c-2.4-4.82-3.75-10.25-3.75-16
		c0-19.88,16.12-36,36-36c14.84,0,27.59,8.99,33.1,21.82c4.9-3.06,10.7-4.82,16.9-4.82
		C145.787,167.386,160.117,181.716,160.117,199.386z"/>
	<path style="fill:#37495E;" d="M161.111,37.684c-1.178,0-2.374-0.261-3.504-0.813c-11.389-5.561-23.856-5.935-35.389-1.121
		c-1.413,1.214-3.245,1.932-5.214,1.932h-0.774c-1.969,0-3.801-0.719-5.214-1.932c-11.534-4.814-24.001-4.44-35.389,1.121
		c-3.971,1.938-8.76,0.292-10.699-3.679c-1.938-3.97-0.292-8.761,3.679-10.699c15.448-7.542,32.34-8.123,48.01-1.743
		c15.669-6.38,32.561-5.8,48.01,1.743c3.97,1.938,5.617,6.729,3.679,10.699C166.919,36.033,164.073,37.684,161.111,37.684z"/>
</g>
<g>
</g>
<g>
</g>
<g>
</g>
<g>
</g>
<g>
</g>
<g>
</g>
<g>
</g>
<g>
</g>
<g>
</g>
<g>
</g>
<g>
</g>
<g>
</g>
<g>
</g>
<g>
</g>
<g>
</g>
</svg>
