<svg id="svg" version="1.1" xmlns="http://www.w3.org/2000/svg" xmlns:xlink="http://www.w3.org/1999/xlink" width="400" height="400" viewBox="0, 0, 400,400"><g id="svgg"><path id="path0" d="M61.500 176.662 C 60.844 176.846,60.800 178.304,60.800 200.039 L 60.800 223.220 61.826 223.610 C 63.155 224.115,82.874 224.102,85.074 223.594 C 90.021 222.452,93.487 218.169,93.869 212.724 C 94.301 206.560,93.540 204.755,88.784 200.667 L 87.000 199.134 89.232 197.067 C 92.743 193.814,93.400 192.449,93.400 188.400 C 93.400 183.347,91.952 180.761,87.400 177.682 L 85.800 176.600 74.000 176.533 C 67.510 176.496,61.885 176.555,61.500 176.662 M104.100 176.665 C 102.881 177.157,103.491 181.112,104.831 181.407 C 107.907 182.082,109.182 181.130,109.195 178.147 C 109.201 176.603,106.327 175.766,104.100 176.665 M157.300 176.649 C 156.908 176.820,156.800 181.885,156.800 200.043 L 156.800 223.220 157.826 223.610 C 159.168 224.120,178.884 224.099,181.111 223.586 C 187.302 222.157,190.967 215.491,189.682 207.996 C 189.194 205.148,188.846 204.539,186.423 202.282 C 185.666 201.577,184.599 200.571,184.052 200.047 L 183.058 199.094 185.223 197.047 C 189.418 193.079,190.787 187.355,188.477 183.441 C 187.995 182.623,187.596 181.740,187.591 181.477 C 187.582 180.958,185.917 179.462,183.400 177.712 L 181.800 176.600 169.800 176.516 C 163.200 176.469,157.575 176.529,157.300 176.649 M199.900 176.676 C 199.368 176.815,199.200 177.278,199.200 178.601 C 199.200 181.034,199.999 181.740,202.481 181.502 C 204.840 181.275,204.689 181.426,205.018 178.951 C 205.339 176.528,203.535 175.726,199.900 176.676 M81.960 181.629 C 84.106 182.089,86.800 184.478,86.800 185.921 C 86.800 186.317,86.998 186.838,87.240 187.080 C 89.046 188.886,86.292 194.703,82.913 196.222 C 80.924 197.115,68.938 197.048,67.931 196.138 C 66.773 195.090,66.831 183.169,68.000 182.000 C 68.931 181.069,78.199 180.822,81.960 181.629 M179.200 181.970 C 184.981 185.159,184.812 193.571,178.913 196.222 C 176.924 197.115,164.938 197.048,163.931 196.138 C 162.691 195.015,162.835 182.708,164.100 181.797 C 165.287 180.941,177.591 181.082,179.200 181.970 M260.124 190.439 C 254.565 191.086,252.301 193.946,255.625 196.122 L 257.251 197.186 258.428 196.316 C 259.840 195.272,265.557 194.832,268.255 195.560 C 270.548 196.179,272.089 198.250,272.319 201.023 C 272.608 204.514,272.057 204.800,265.055 204.800 C 257.225 204.800,254.303 206.032,251.665 210.447 C 250.374 212.608,250.441 216.714,251.800 218.714 C 252.350 219.523,252.800 220.414,252.800 220.693 C 252.800 220.972,252.966 221.200,253.169 221.200 C 253.372 221.200,254.105 221.677,254.797 222.259 C 257.473 224.511,263.445 225.009,268.286 223.384 L 271.314 222.367 272.207 223.206 C 272.930 223.885,273.510 224.022,275.250 223.923 L 277.400 223.800 277.400 210.168 L 277.400 196.536 276.300 195.095 C 275.695 194.302,275.200 193.461,275.200 193.227 C 275.200 192.992,274.972 192.800,274.693 192.800 C 274.414 192.800,273.528 192.353,272.725 191.807 C 270.774 190.481,265.075 189.863,260.124 190.439 M104.296 190.677 C 103.635 190.849,103.598 191.881,103.696 207.121 L 103.800 223.381 104.889 223.764 C 105.571 224.004,106.542 224.007,107.489 223.773 L 109.000 223.400 109.104 207.151 L 109.209 190.902 107.954 190.651 C 106.595 190.379,105.404 190.387,104.296 190.677 M125.813 190.671 C 124.138 191.141,120.439 194.460,120.413 195.516 C 120.406 195.800,120.040 196.738,119.600 197.600 C 118.229 200.287,118.407 213.891,119.862 217.616 C 122.287 223.825,131.842 226.725,136.372 222.626 C 137.429 221.669,139.485 221.809,139.819 222.861 C 140.281 224.316,140.082 226.815,139.425 227.819 C 139.081 228.343,138.800 229.013,138.800 229.307 C 138.800 231.272,132.432 234.136,130.015 233.258 C 129.457 233.056,128.254 232.688,127.341 232.441 C 126.429 232.195,125.580 231.724,125.454 231.396 C 125.109 230.498,123.848 230.679,122.638 231.800 C 122.044 232.350,121.388 232.800,121.179 232.800 C 120.359 232.800,120.791 235.167,121.700 235.651 C 122.195 235.915,122.780 236.351,123.000 236.620 C 123.566 237.312,129.535 239.200,131.157 239.200 C 132.825 239.200,138.659 237.304,139.664 236.436 C 141.543 234.813,143.600 232.668,143.600 232.332 C 143.600 232.128,143.997 231.205,144.483 230.281 C 145.351 228.629,145.368 228.275,145.511 209.754 L 145.655 190.908 144.728 190.659 C 142.480 190.057,141.029 190.358,139.972 191.644 C 138.781 193.092,137.012 193.024,135.568 191.474 C 134.764 190.610,128.010 190.055,125.813 190.671 M200.100 190.662 L 199.200 190.856 199.200 206.964 L 199.200 223.072 200.219 223.536 C 201.521 224.129,202.887 224.126,204.202 223.526 L 205.242 223.053 205.121 207.159 C 205.054 198.418,204.874 191.140,204.720 190.986 C 204.360 190.627,201.272 190.410,200.100 190.662 M216.390 191.426 C 215.790 193.005,215.873 222.913,216.480 223.520 C 217.125 224.165,220.590 224.135,221.133 223.481 C 221.412 223.144,221.606 218.956,221.682 211.581 C 221.799 200.333,221.811 200.185,222.743 198.943 C 225.969 194.645,231.472 194.311,235.200 198.187 L 236.600 199.643 236.717 211.365 L 236.834 223.087 237.836 223.543 C 239.191 224.161,241.237 224.098,242.144 223.411 C 244.118 221.916,242.577 196.577,240.378 194.378 C 239.950 193.950,239.600 193.432,239.600 193.227 C 239.600 193.022,239.234 192.738,238.786 192.596 C 238.339 192.454,237.609 191.947,237.164 191.469 C 235.790 189.995,227.612 190.168,225.419 191.717 C 223.615 192.992,222.373 192.994,221.816 191.725 C 221.067 190.019,217.010 189.796,216.390 191.426 M289.048 190.723 C 288.737 191.226,288.664 223.057,288.973 223.556 C 289.341 224.152,292.916 224.124,293.520 223.520 C 293.869 223.171,294.000 220.127,294.000 212.332 C 294.000 200.047,294.106 199.587,297.551 196.936 L 299.400 195.513 303.246 195.771 L 307.092 196.029 308.346 194.601 C 309.640 193.127,309.865 192.239,309.208 191.200 C 308.533 190.132,299.652 190.348,298.541 191.459 C 296.925 193.075,294.000 193.032,294.000 191.394 C 294.000 190.482,289.568 189.881,289.048 190.723 M315.500 190.655 C 314.747 190.874,314.556 191.802,315.184 192.190 C 315.395 192.321,315.867 193.456,316.233 194.714 C 316.599 195.971,317.216 197.630,317.606 198.400 C 317.995 199.170,318.442 200.407,318.599 201.149 C 318.757 201.892,319.213 203.062,319.613 203.749 C 320.014 204.437,320.467 205.720,320.621 206.600 C 320.775 207.480,321.135 208.470,321.421 208.800 C 321.706 209.130,322.165 210.300,322.440 211.400 C 322.715 212.500,323.263 213.934,323.659 214.587 C 324.054 215.240,324.493 216.545,324.634 217.487 C 324.775 218.429,325.045 219.200,325.234 219.200 C 326.718 219.200,326.894 226.703,325.450 228.372 C 325.152 228.717,324.791 229.490,324.649 230.089 C 324.367 231.274,322.954 232.800,322.138 232.800 C 320.163 232.800,318.800 234.142,318.800 236.087 C 318.800 241.431,327.971 237.459,329.621 231.400 C 329.861 230.520,330.389 229.080,330.794 228.200 C 331.199 227.320,331.646 226.033,331.788 225.339 C 331.930 224.646,332.396 223.392,332.823 222.554 C 333.250 221.716,333.606 220.664,333.613 220.215 C 333.619 219.767,334.068 218.500,334.609 217.400 C 335.150 216.300,335.594 215.103,335.596 214.740 C 335.598 214.377,336.048 213.117,336.596 211.940 C 337.144 210.763,337.594 209.437,337.596 208.994 C 337.598 208.551,337.955 207.526,338.388 206.717 C 338.822 205.908,339.392 204.381,339.654 203.323 C 339.917 202.265,340.360 201.040,340.640 200.600 C 340.919 200.160,341.369 198.900,341.640 197.800 C 341.910 196.700,342.362 195.440,342.643 195.000 C 344.617 191.916,344.014 190.400,340.814 190.400 L 338.894 190.400 337.895 192.500 C 337.346 193.655,336.683 195.500,336.422 196.600 C 336.161 197.700,335.717 198.960,335.434 199.400 C 335.152 199.840,334.792 200.920,334.634 201.800 C 334.477 202.680,334.020 204.120,333.619 205.000 C 333.218 205.880,332.690 207.445,332.445 208.477 C 331.299 213.313,327.600 215.620,327.600 211.499 C 327.600 211.207,327.257 210.296,326.837 209.473 C 326.417 208.650,325.854 207.036,325.585 205.888 C 325.316 204.740,324.866 203.350,324.585 202.800 C 324.046 201.748,322.888 198.318,321.635 194.064 C 320.656 190.742,318.781 189.700,315.500 190.655 M136.512 196.825 C 137.530 197.499,138.482 198.444,138.628 198.925 C 138.775 199.406,139.178 200.123,139.524 200.517 C 140.465 201.587,140.478 212.800,139.540 213.866 C 139.185 214.270,138.785 214.960,138.651 215.400 C 137.567 218.954,130.209 220.018,127.007 217.082 C 123.911 214.244,122.879 204.779,125.137 199.936 C 127.111 195.701,132.564 194.210,136.512 196.825 M83.874 203.119 C 88.731 205.651,90.081 214.485,85.893 216.336 C 85.724 216.410,85.360 216.697,85.085 216.973 C 83.686 218.372,82.551 218.585,75.739 218.731 C 66.539 218.928,67.107 219.504,67.275 210.141 C 67.432 201.347,66.787 201.994,75.376 202.019 C 81.561 202.037,81.877 202.078,83.874 203.119 M179.200 202.834 C 181.229 203.754,182.800 205.078,182.800 205.870 C 182.800 206.161,182.962 206.400,183.161 206.400 C 183.694 206.400,184.400 208.698,184.400 210.434 C 184.400 213.021,182.976 215.519,180.461 217.340 L 178.722 218.600 171.800 218.739 C 162.614 218.923,163.200 219.491,163.200 210.400 C 163.200 201.454,162.688 201.997,171.100 202.009 C 176.575 202.016,177.636 202.124,179.200 202.834 M271.600 210.199 C 273.774 212.169,271.470 218.309,268.303 218.988 C 261.190 220.511,255.997 218.459,256.002 214.127 C 256.004 212.332,257.760 210.155,259.517 209.768 C 260.113 209.637,260.780 209.463,261.000 209.380 C 262.512 208.814,270.776 209.452,271.600 210.199 " stroke="none" fill="#f2f7fc" fill-rule="evenodd"></path><path id="path1" d="M60.582 175.382 L 59.600 176.364 59.600 200.200 L 59.600 224.036 60.582 225.018 L 61.564 226.000 72.063 226.000 C 83.788 226.000,86.919 225.490,89.679 223.131 C 90.406 222.510,91.098 222.001,91.218 222.001 C 93.756 221.990,96.974 210.903,95.438 207.460 C 95.128 206.767,94.754 205.660,94.605 205.001 C 94.442 204.279,93.353 202.846,91.867 201.401 L 89.400 199.000 91.692 196.672 C 95.051 193.261,96.116 185.317,93.660 181.995 C 93.187 181.356,92.800 180.668,92.800 180.467 C 92.800 179.942,89.498 176.974,88.146 176.283 C 85.295 174.826,81.502 174.400,71.403 174.400 L 61.564 174.400 60.582 175.382 M103.600 174.657 C 102.068 175.258,101.310 179.964,102.414 182.026 C 102.970 183.065,108.764 183.179,109.771 182.171 C 110.591 181.352,110.646 176.489,109.848 175.398 C 109.284 174.627,104.978 174.116,103.600 174.657 M156.960 174.706 C 155.662 175.573,155.600 176.745,155.600 200.392 L 155.600 224.036 156.605 225.041 L 157.609 226.046 168.985 225.923 C 177.415 225.832,180.491 225.671,180.861 225.300 C 181.135 225.025,181.743 224.800,182.211 224.800 C 182.680 224.800,183.905 224.242,184.934 223.561 C 192.832 218.329,194.184 207.866,187.800 201.385 L 185.400 198.948 187.095 197.374 C 188.028 196.508,188.793 195.594,188.795 195.343 C 188.798 195.091,189.045 194.792,189.344 194.677 C 192.706 193.387,190.594 181.100,186.481 178.019 C 185.887 177.573,185.182 177.026,184.915 176.803 C 182.566 174.835,159.372 173.096,156.960 174.706 M199.294 174.815 C 197.622 175.487,196.930 180.066,198.223 181.911 C 199.077 183.131,204.670 183.248,205.738 182.069 C 206.854 180.835,206.652 176.616,205.418 175.382 C 204.364 174.328,201.229 174.038,199.294 174.815 M84.855 175.840 C 94.622 178.061,97.828 190.874,90.263 197.455 L 88.528 198.965 91.175 201.582 C 98.119 208.450,95.563 220.832,86.498 224.240 C 84.539 224.976,65.247 225.598,62.184 225.023 C 59.986 224.611,60.000 224.775,60.000 199.781 C 60.000 177.333,60.019 176.781,60.800 176.000 C 61.893 174.907,80.216 174.785,84.855 175.840 M109.200 176.000 C 110.470 177.270,110.341 180.958,108.997 181.839 C 107.748 182.657,103.341 182.468,102.774 181.572 C 100.983 178.741,102.886 175.200,106.200 175.200 C 107.867 175.200,108.594 175.394,109.200 176.000 M180.149 175.658 C 190.404 177.718,194.036 190.915,186.160 197.498 L 184.424 198.950 186.951 201.375 C 193.953 208.095,191.497 220.892,182.568 224.210 C 180.529 224.967,161.325 225.613,158.210 225.028 C 155.982 224.610,156.000 224.820,156.000 199.781 C 156.000 177.333,156.019 176.781,156.800 176.000 C 157.752 175.048,175.794 174.784,180.149 175.658 M205.200 176.000 C 206.470 177.270,206.341 180.958,204.997 181.839 C 203.748 182.657,199.341 182.468,198.774 181.572 C 198.341 180.887,198.289 176.784,198.706 176.160 C 199.523 174.936,204.025 174.825,205.200 176.000 M68.700 182.687 C 67.798 183.687,67.650 194.168,68.521 195.359 C 69.501 196.700,81.806 196.150,83.733 194.679 C 87.525 191.785,87.465 186.078,83.615 183.410 C 81.326 181.824,69.976 181.274,68.700 182.687 M164.700 182.557 C 163.826 183.220,163.631 194.671,164.480 195.520 C 165.458 196.498,176.784 196.153,178.806 195.084 C 184.474 192.087,183.343 183.788,177.080 182.419 C 174.247 181.800,165.570 181.897,164.700 182.557 M83.414 184.053 C 87.033 186.652,86.926 191.618,83.196 194.204 L 81.470 195.400 75.369 195.400 C 72.013 195.400,69.138 195.270,68.979 195.112 C 68.541 194.674,68.258 187.598,68.577 185.047 L 68.858 182.800 75.263 182.800 L 81.669 182.800 83.414 184.053 M179.162 183.879 C 183.613 187.219,182.425 193.702,177.081 195.234 C 175.415 195.712,165.973 195.697,165.211 195.215 C 164.536 194.788,164.114 187.702,164.579 184.600 L 164.849 182.800 171.287 182.800 C 177.657 182.800,177.740 182.811,179.162 183.879 M125.650 189.222 C 118.602 191.724,116.388 198.041,117.480 212.525 C 118.292 223.303,126.777 229.399,134.984 225.101 C 137.123 223.981,138.635 224.178,138.241 225.524 C 138.132 225.896,137.929 226.841,137.791 227.624 C 137.123 231.405,130.403 233.127,126.778 230.447 C 124.260 228.585,118.800 231.045,118.800 234.041 C 118.800 235.163,122.584 238.800,123.752 238.800 C 124.015 238.800,124.937 239.160,125.800 239.600 C 128.240 240.844,134.293 240.740,137.000 239.409 C 138.100 238.868,139.161 238.419,139.357 238.413 C 140.089 238.387,144.125 234.605,144.679 233.425 C 144.996 232.751,145.558 231.660,145.928 231.000 C 147.084 228.935,147.167 190.767,146.018 189.618 C 144.842 188.442,141.615 188.524,139.020 189.795 C 137.634 190.473,136.893 190.643,136.551 190.359 C 134.327 188.514,129.162 187.975,125.650 189.222 M226.600 189.468 C 225.060 190.031,223.575 190.673,223.300 190.895 C 222.940 191.185,222.800 191.118,222.800 190.658 C 222.800 189.429,220.983 188.691,218.412 188.877 C 214.120 189.187,214.400 187.903,214.400 207.280 L 214.400 224.036 215.382 225.018 C 216.205 225.841,216.749 226.000,218.753 226.000 C 222.816 226.000,222.800 226.051,222.800 213.167 C 222.800 200.622,223.034 199.676,226.600 197.779 C 228.889 196.563,229.881 196.552,231.939 197.721 C 235.435 199.707,235.374 199.456,235.600 212.676 C 235.836 226.470,235.611 225.800,240.000 225.800 C 244.454 225.800,244.200 226.679,244.200 211.267 C 244.200 199.962,244.113 198.029,243.563 197.182 C 243.213 196.642,242.812 195.750,242.672 195.200 C 242.533 194.650,241.801 193.570,241.047 192.800 C 236.909 188.574,232.086 187.461,226.600 189.468 M258.000 189.277 C 252.788 190.886,250.278 194.476,253.100 196.288 C 253.705 196.676,254.531 197.293,254.935 197.659 C 256.137 198.747,257.104 198.780,259.044 197.798 C 260.790 196.914,262.818 196.630,266.540 196.750 C 268.758 196.822,270.400 198.642,270.400 201.028 C 270.400 203.419,269.899 203.600,263.290 203.600 C 253.020 203.600,248.124 208.221,249.513 216.604 C 250.013 219.620,253.361 224.400,254.975 224.400 C 255.123 224.400,256.089 224.800,257.122 225.289 C 259.602 226.463,266.045 226.586,267.717 225.491 C 268.998 224.652,271.121 224.614,272.176 225.413 C 273.334 226.288,276.888 226.181,278.056 225.235 L 279.000 224.470 279.000 211.135 C 279.000 195.512,278.959 195.267,275.810 192.193 C 272.208 188.676,264.198 187.365,258.000 189.277 M299.800 189.275 C 296.736 190.500,296.246 190.533,294.569 189.635 C 292.177 188.352,288.532 188.624,287.506 190.160 C 287.344 190.402,287.209 198.091,287.206 207.246 C 287.199 226.835,287.022 226.000,291.185 226.000 C 295.507 226.000,295.364 226.421,295.612 212.936 C 295.854 199.730,295.873 199.650,299.123 197.881 C 301.343 196.672,302.627 196.543,303.776 197.413 C 304.859 198.232,307.284 198.165,308.011 197.296 C 308.335 196.909,309.275 195.797,310.100 194.824 C 312.579 191.902,312.018 190.480,307.829 189.065 C 305.265 188.200,302.297 188.278,299.800 189.275 M103.800 189.057 C 102.014 189.527,101.999 189.674,102.013 207.376 C 102.027 226.891,101.780 225.672,105.777 225.926 C 108.114 226.075,108.439 225.997,109.373 225.063 L 110.400 224.036 110.400 207.295 C 110.400 194.241,110.286 190.397,109.883 189.846 C 109.349 189.116,105.480 188.614,103.800 189.057 M199.690 189.063 C 197.590 189.514,197.565 189.745,197.687 207.735 C 197.818 226.974,197.522 225.655,201.768 225.926 C 204.115 226.075,204.439 225.998,205.373 225.063 L 206.400 224.036 206.400 207.280 C 206.400 190.989,206.378 190.504,205.594 189.794 C 204.779 189.057,201.571 188.660,199.690 189.063 M237.033 190.421 C 239.466 191.592,241.646 194.008,242.663 196.664 C 243.744 199.483,244.121 223.470,243.098 224.319 C 241.616 225.549,237.024 225.337,236.606 224.020 C 236.478 223.614,236.334 218.359,236.286 212.341 C 236.204 201.863,236.163 201.340,235.326 199.994 C 232.312 195.149,225.844 195.366,223.142 200.404 C 222.472 201.654,222.400 202.833,222.400 212.605 C 222.400 225.374,222.448 225.200,218.959 225.200 C 217.161 225.200,216.586 225.022,215.782 224.218 L 214.800 223.236 214.800 207.064 L 214.800 190.892 215.786 190.246 C 217.528 189.104,220.939 189.374,222.092 190.744 L 223.054 191.888 225.027 190.874 C 229.111 188.774,233.285 188.617,237.033 190.421 M267.848 189.416 C 273.548 190.406,276.657 192.544,277.942 196.360 C 278.747 198.750,278.567 223.552,277.738 224.469 C 276.905 225.389,273.326 225.482,272.176 224.613 C 271.126 223.818,270.143 223.856,267.400 224.800 C 258.757 227.774,249.983 222.615,250.009 214.574 C 250.032 207.288,253.928 204.345,264.000 204.008 C 271.277 203.764,271.200 203.796,271.200 201.018 C 271.200 196.360,264.589 194.351,258.715 197.223 L 256.829 198.145 254.815 196.773 C 250.764 194.011,252.934 190.934,260.000 189.421 C 263.398 188.693,263.675 188.692,267.848 189.416 M314.055 189.821 C 313.312 190.765,313.294 190.970,313.809 192.521 C 315.288 196.969,316.373 199.977,316.743 200.654 C 316.967 201.064,317.457 202.300,317.832 203.400 C 318.884 206.489,320.220 210.047,320.944 211.687 C 321.305 212.505,321.600 213.393,321.600 213.661 C 321.600 213.928,321.942 214.879,322.360 215.774 C 322.777 216.668,323.431 218.390,323.812 219.600 C 324.194 220.810,324.682 222.023,324.897 222.294 C 326.565 224.401,322.948 231.375,319.937 231.856 C 317.873 232.187,317.200 233.214,317.200 236.035 C 317.200 240.143,320.589 241.737,324.286 239.368 C 324.773 239.055,325.446 238.800,325.780 238.800 C 326.816 238.800,329.968 235.205,330.479 233.440 C 330.741 232.538,331.178 231.440,331.451 231.000 C 331.724 230.560,332.169 229.300,332.440 228.200 C 332.710 227.100,333.160 225.840,333.440 225.400 C 333.719 224.960,334.169 223.700,334.440 222.600 C 334.710 221.500,335.160 220.240,335.440 219.800 C 335.719 219.360,336.169 218.100,336.440 217.000 C 336.710 215.900,337.160 214.640,337.440 214.200 C 337.719 213.760,338.169 212.500,338.440 211.400 C 338.710 210.300,339.160 209.040,339.440 208.600 C 339.719 208.160,340.169 206.900,340.440 205.800 C 340.710 204.700,341.160 203.440,341.440 203.000 C 341.719 202.560,342.169 201.300,342.440 200.200 C 342.710 199.100,343.160 197.840,343.440 197.400 C 343.719 196.960,344.169 195.700,344.440 194.600 C 344.710 193.500,345.162 192.240,345.445 191.800 C 347.034 189.322,340.371 187.487,337.804 189.695 C 336.719 190.628,333.872 198.102,331.749 205.590 C 331.407 206.795,330.657 208.585,330.081 209.567 L 329.034 211.354 328.354 209.062 C 327.979 207.801,327.500 206.552,327.289 206.285 C 327.077 206.018,326.779 205.080,326.626 204.200 C 326.473 203.320,326.016 201.880,325.609 201.000 C 325.202 200.120,324.748 198.770,324.600 198.000 C 324.452 197.230,323.999 195.880,323.594 195.000 C 323.189 194.120,322.654 192.621,322.405 191.670 C 321.645 188.763,315.889 187.489,314.055 189.821 M134.104 189.829 C 135.120 190.175,136.151 190.700,136.396 190.995 C 136.920 191.627,138.901 191.194,139.987 190.212 C 140.422 189.818,141.450 189.600,142.870 189.600 C 146.699 189.600,146.469 188.236,146.325 210.059 L 146.200 229.000 144.869 231.695 C 140.678 240.182,128.851 242.582,121.300 236.478 C 118.989 234.610,119.007 233.465,121.376 231.485 C 123.347 229.837,124.617 229.634,126.046 230.736 C 129.319 233.261,135.532 232.707,137.493 229.715 C 139.783 226.219,138.930 222.048,136.280 223.784 C 130.707 227.436,122.108 224.934,119.245 218.828 C 118.056 216.293,117.445 201.826,118.372 198.147 C 120.098 191.292,127.269 187.500,134.104 189.829 M308.136 189.840 C 311.370 190.942,311.547 192.623,308.735 195.544 C 307.096 197.247,307.013 197.281,305.228 196.985 C 296.240 195.497,295.060 197.308,294.918 212.800 C 294.802 225.424,294.867 225.206,291.256 225.194 C 287.516 225.182,287.600 225.601,287.600 206.958 C 287.600 188.610,287.398 189.594,291.162 189.609 C 292.765 189.615,293.684 189.840,294.400 190.400 C 295.473 191.239,297.195 191.445,297.830 190.810 C 299.351 189.289,304.968 188.761,308.136 189.840 M109.269 190.262 C 110.260 191.159,110.413 222.882,109.432 224.224 C 108.602 225.360,103.798 225.360,102.968 224.224 C 102.349 223.377,102.101 191.466,102.706 190.560 C 103.461 189.430,108.116 189.219,109.269 190.262 M205.111 190.223 L 206.000 190.845 206.000 206.804 C 206.000 218.002,205.862 223.064,205.539 223.775 C 204.697 225.622,199.137 225.708,198.647 223.882 C 198.303 222.597,198.358 191.081,198.706 190.560 C 199.436 189.467,203.711 189.242,205.111 190.223 M320.696 190.212 C 321.207 190.570,321.895 191.857,322.352 193.312 C 323.658 197.460,328.736 212.069,328.945 212.278 C 329.533 212.866,331.488 208.355,334.178 200.200 C 337.626 189.749,337.724 189.600,341.168 189.600 C 345.534 189.600,345.560 189.906,342.022 199.600 C 341.339 201.470,340.442 203.990,340.028 205.200 C 338.940 208.383,335.637 217.695,335.347 218.400 C 335.211 218.730,334.202 221.520,333.105 224.600 C 332.007 227.680,330.846 230.920,330.525 231.800 C 328.682 236.845,324.001 240.162,319.600 239.541 C 316.750 239.139,317.159 232.844,320.066 232.374 C 322.511 231.979,323.377 231.119,324.536 227.934 C 326.094 223.652,326.037 223.319,321.988 213.000 C 321.297 211.240,320.493 209.080,320.200 208.200 C 319.907 207.320,319.011 204.890,318.208 202.800 C 314.382 192.829,313.798 190.925,314.362 190.246 C 315.085 189.375,319.467 189.351,320.696 190.212 M130.200 196.665 C 126.552 197.651,125.400 200.132,125.400 207.000 C 125.400 215.356,126.718 217.610,131.787 217.922 C 137.321 218.262,139.650 214.015,138.983 204.800 C 138.527 198.501,135.112 195.338,130.200 196.665 M135.041 197.978 C 137.872 199.602,138.200 200.560,138.200 207.200 C 138.200 213.532,137.805 214.975,135.683 216.387 C 132.286 218.648,127.362 217.055,126.441 213.397 C 125.870 211.131,125.929 203.103,126.532 200.863 C 127.463 197.409,131.601 196.005,135.041 197.978 M69.755 203.075 C 68.004 203.419,67.026 214.919,68.569 217.024 C 69.545 218.355,81.110 218.183,83.600 216.800 C 88.221 214.233,88.707 207.408,84.473 204.541 C 82.392 203.133,73.811 202.278,69.755 203.075 M166.000 203.083 C 164.190 203.397,164.000 204.114,164.000 210.627 C 164.000 218.318,163.454 217.800,171.564 217.800 C 181.616 217.800,185.654 213.723,182.354 206.906 C 180.716 203.522,173.362 201.803,166.000 203.083 M84.062 204.872 C 85.670 205.927,86.935 209.007,86.641 211.151 C 85.977 216.001,83.700 217.200,75.159 217.200 L 68.905 217.200 68.657 215.700 C 68.330 213.725,68.329 205.450,68.655 204.601 C 69.032 203.619,82.513 203.855,84.062 204.872 M180.059 204.870 C 182.373 206.388,183.206 210.481,181.825 213.544 C 180.471 216.547,178.549 217.200,171.063 217.200 L 164.900 217.200 164.650 215.950 C 164.323 214.313,164.326 205.457,164.655 204.601 C 165.031 203.620,178.512 203.855,180.059 204.870 M260.836 210.386 C 254.617 211.391,256.059 218.006,262.569 218.334 C 269.117 218.665,271.200 217.341,271.200 212.847 C 271.200 210.094,267.731 209.270,260.836 210.386 M270.157 211.433 C 270.906 213.385,269.959 216.823,268.520 217.375 C 262.142 219.823,254.723 215.640,258.872 211.936 C 260.433 210.542,269.658 210.131,270.157 211.433 " stroke="none" fill="#5dacee" fill-rule="evenodd"></path><path id="path2" d="M0.000 200.000 L 0.000 400.000 200.000 400.000 L 400.000 400.000 400.000 200.000 L 400.000 0.000 200.000 0.000 L 0.000 0.000 0.000 200.000 M84.974 174.357 C 85.868 174.774,87.067 175.220,87.638 175.349 C 88.803 175.613,92.800 178.649,92.800 179.270 C 92.800 179.491,93.171 179.972,93.625 180.340 C 94.141 180.758,94.538 181.682,94.684 182.804 C 94.812 183.792,95.161 184.955,95.458 185.389 C 96.190 186.455,96.160 190.436,95.413 191.424 C 95.090 191.851,94.820 192.614,94.813 193.120 C 94.795 194.433,93.843 195.988,92.085 197.579 L 90.561 198.957 92.680 201.027 C 93.846 202.165,94.800 203.397,94.800 203.764 C 94.800 204.132,95.205 204.980,95.700 205.650 C 97.011 207.423,97.044 214.532,95.750 216.282 C 95.283 216.914,94.779 217.985,94.631 218.661 C 94.482 219.337,93.964 220.266,93.480 220.725 C 92.996 221.185,92.362 221.795,92.071 222.080 C 91.780 222.366,91.141 222.993,90.651 223.472 C 90.161 223.952,89.229 224.477,88.580 224.638 C 87.931 224.800,86.890 225.307,86.267 225.766 C 84.563 227.020,60.681 227.072,59.768 225.824 C 58.723 224.395,58.944 175.456,60.000 174.400 C 61.198 173.202,82.414 173.165,84.974 174.357 M109.911 174.223 C 111.236 175.151,111.251 181.669,109.930 183.074 C 108.711 184.372,103.930 184.414,102.400 183.142 C 101.050 182.019,100.881 175.857,102.162 174.442 C 103.144 173.357,108.461 173.207,109.911 174.223 M180.974 174.357 C 181.868 174.774,183.058 175.218,183.618 175.344 C 184.724 175.594,188.400 178.291,188.400 178.854 C 188.400 179.044,188.746 179.546,189.170 179.970 C 190.297 181.097,190.800 182.195,190.800 183.528 C 190.800 184.177,191.069 185.224,191.398 185.854 C 192.161 187.318,192.161 189.482,191.398 190.946 C 191.069 191.576,190.800 192.591,190.800 193.202 C 190.800 194.302,188.325 197.762,187.015 198.496 C 186.521 198.772,186.827 199.252,188.602 200.984 C 189.937 202.288,190.800 203.473,190.800 204.002 C 190.800 204.482,191.139 205.305,191.554 205.832 C 193.052 207.737,193.091 214.909,191.610 216.390 C 191.233 216.767,190.806 217.668,190.661 218.393 C 190.517 219.117,189.993 220.122,189.499 220.626 C 188.368 221.778,187.778 222.368,186.626 223.499 C 186.122 223.993,185.117 224.517,184.393 224.661 C 183.668 224.806,182.759 225.241,182.373 225.627 C 180.835 227.165,156.876 227.342,155.767 225.824 C 154.723 224.394,154.944 175.456,156.000 174.400 C 157.198 173.202,178.414 173.165,180.974 174.357 M206.000 174.400 C 207.227 175.627,207.178 181.746,205.930 183.074 C 204.553 184.540,199.412 184.450,198.113 182.938 C 196.824 181.438,196.772 176.252,198.029 174.654 C 199.149 173.230,204.654 173.054,206.000 174.400 M69.875 183.922 C 68.846 184.996,68.800 185.226,68.800 189.295 L 68.800 193.546 70.021 194.415 C 72.748 196.357,81.316 195.109,84.262 192.342 C 85.418 191.256,85.673 186.667,84.600 186.255 C 84.270 186.129,84.000 185.768,84.000 185.453 C 84.000 183.218,71.815 181.897,69.875 183.922 M165.900 183.646 C 164.813 184.457,164.800 184.520,164.800 189.004 C 164.800 195.128,165.044 195.354,171.400 195.105 C 179.828 194.775,184.031 190.253,180.089 185.758 C 177.740 183.078,168.503 181.704,165.900 183.646 M110.100 188.868 C 111.063 189.998,111.187 224.518,110.232 225.824 C 109.424 226.928,103.205 226.976,102.114 225.886 C 100.990 224.762,101.016 190.109,102.142 188.865 C 103.499 187.365,108.820 187.367,110.100 188.868 M133.726 188.060 C 134.207 188.313,134.715 188.695,134.855 188.910 C 135.336 189.648,138.279 189.434,139.212 188.592 C 140.794 187.166,145.478 187.586,146.884 189.281 L 147.978 190.600 147.989 208.340 C 147.998 222.768,147.895 226.314,147.436 227.340 C 147.125 228.033,146.788 229.443,146.688 230.474 C 146.578 231.596,146.122 232.855,145.552 233.612 C 143.827 235.904,140.667 238.800,139.891 238.800 C 139.471 238.800,138.800 239.205,138.399 239.700 C 137.699 240.566,137.425 240.600,131.268 240.600 C 125.178 240.600,124.818 240.556,123.906 239.700 C 123.380 239.205,122.690 238.793,122.374 238.785 C 121.327 238.757,118.081 235.466,117.816 234.164 C 117.521 232.715,120.907 229.399,123.134 228.953 C 124.556 228.669,128.359 229.828,128.671 230.642 C 129.179 231.965,133.624 231.320,135.530 229.647 C 138.441 227.089,138.460 223.548,135.551 225.700 C 133.916 226.910,127.709 227.234,125.574 226.220 C 122.348 224.690,121.200 223.961,121.200 223.444 C 121.200 223.141,120.841 222.799,120.402 222.685 C 119.963 222.570,119.482 222.158,119.333 221.769 C 119.183 221.379,118.745 220.745,118.359 220.359 C 117.973 219.973,117.564 218.880,117.450 217.929 C 117.336 216.978,117.027 214.541,116.765 212.513 C 115.944 206.167,116.947 196.406,118.685 193.840 C 120.180 191.632,122.371 189.619,123.596 189.330 C 124.148 189.199,124.870 188.870,125.200 188.598 C 126.487 187.538,132.066 187.186,133.726 188.060 M204.189 187.988 C 206.897 188.615,206.800 187.893,206.800 207.400 C 206.800 228.266,207.203 226.585,202.202 226.594 C 196.795 226.604,197.200 228.155,197.200 207.410 C 197.200 190.651,197.225 190.076,198.009 189.080 C 199.068 187.733,201.352 187.330,204.189 187.988 M220.376 187.978 C 221.353 188.166,222.381 188.633,222.661 189.015 C 223.292 189.879,225.700 189.596,226.891 188.517 C 230.015 185.689,242.800 190.031,242.800 193.920 C 242.800 194.266,243.205 194.979,243.700 195.506 C 244.593 196.456,244.601 196.570,244.719 210.564 C 244.862 227.599,245.156 226.600,240.000 226.600 C 234.990 226.600,235.200 227.162,235.200 213.748 L 235.200 202.785 234.180 200.835 C 232.886 198.359,230.941 197.692,227.245 198.455 L 224.933 198.933 224.466 201.190 C 224.185 202.553,224.000 207.358,224.000 213.312 C 224.000 226.595,223.612 227.363,217.265 226.646 C 213.381 226.207,213.600 227.351,213.600 207.529 C 213.600 196.004,213.742 190.082,214.031 189.541 C 214.893 187.932,217.198 187.364,220.376 187.978 M270.800 188.464 C 271.350 188.826,272.355 189.237,273.033 189.378 C 273.712 189.519,275.204 190.514,276.349 191.589 C 278.452 193.563,278.766 194.232,280.037 199.431 C 280.270 200.385,280.386 205.896,280.318 212.722 L 280.200 224.383 279.126 225.456 C 277.735 226.846,274.663 227.166,271.510 226.249 C 269.487 225.661,269.200 225.661,268.017 226.251 C 265.923 227.296,257.168 226.885,255.888 225.682 C 255.371 225.197,254.660 224.800,254.307 224.800 C 253.382 224.800,249.666 220.417,249.391 219.000 C 249.262 218.340,248.957 216.963,248.713 215.940 C 248.392 214.596,248.390 213.765,248.704 212.940 C 248.944 212.313,249.251 211.126,249.388 210.301 C 249.524 209.477,250.078 208.326,250.618 207.743 C 251.158 207.160,251.600 206.560,251.600 206.409 C 251.600 204.424,259.982 202.446,266.468 202.901 C 268.924 203.074,269.154 203.022,269.362 202.244 C 270.506 197.985,265.985 195.537,261.101 197.771 C 257.757 199.301,255.235 199.311,253.835 197.800 C 253.325 197.250,252.710 196.800,252.468 196.800 C 251.800 196.800,251.200 195.415,251.200 193.874 C 251.200 192.306,253.699 189.879,255.839 189.369 C 256.478 189.217,257.270 188.870,257.600 188.598 C 258.683 187.707,259.343 187.623,264.600 187.716 C 268.636 187.787,270.024 187.954,270.800 188.464 M294.883 188.675 C 295.866 189.564,298.506 189.551,299.405 188.652 C 300.796 187.261,307.234 187.183,308.734 188.540 C 309.997 189.683,312.714 189.900,313.406 188.913 C 315.256 186.272,322.800 188.021,322.800 191.090 C 322.800 191.672,323.159 192.530,323.597 192.997 C 324.046 193.475,324.511 194.708,324.663 195.823 C 324.810 196.910,325.260 198.250,325.663 198.800 C 326.065 199.350,326.515 200.700,326.663 201.800 C 326.810 202.900,327.265 204.254,327.674 204.809 C 328.082 205.364,328.534 206.804,328.677 208.009 L 328.938 210.200 329.508 208.800 C 329.821 208.030,330.284 207.149,330.536 206.842 C 330.788 206.535,331.213 205.213,331.480 203.904 C 331.747 202.595,332.197 201.245,332.480 200.904 C 332.763 200.563,333.214 199.206,333.483 197.889 C 333.751 196.572,334.232 195.203,334.550 194.847 C 334.868 194.491,335.255 193.346,335.410 192.302 C 335.927 188.800,339.804 186.870,344.033 188.009 C 346.551 188.687,347.394 191.582,345.626 193.480 C 345.245 193.889,344.812 195.108,344.663 196.189 C 344.515 197.270,344.059 198.525,343.650 198.977 C 343.240 199.430,342.790 200.690,342.650 201.777 C 342.503 202.909,342.053 204.118,341.597 204.603 C 341.159 205.070,340.799 205.890,340.798 206.426 C 340.794 208.032,339.990 210.429,339.375 210.665 C 339.059 210.786,338.800 211.403,338.800 212.035 C 338.800 213.393,337.668 216.400,337.157 216.400 C 336.960 216.400,336.800 216.827,336.800 217.350 C 336.800 219.060,336.324 220.731,335.622 221.484 C 335.243 221.891,334.812 223.108,334.663 224.189 C 334.515 225.270,334.059 226.525,333.650 226.977 C 333.240 227.430,332.790 228.690,332.650 229.777 C 332.503 230.909,332.053 232.118,331.597 232.603 C 331.159 233.070,330.800 233.853,330.800 234.344 C 330.800 234.835,330.350 235.686,329.800 236.236 C 329.250 236.786,328.800 237.412,328.800 237.627 C 328.800 237.841,328.305 238.235,327.700 238.500 C 327.095 238.766,326.460 239.205,326.289 239.476 C 325.270 241.090,318.612 241.303,317.170 239.768 C 314.714 237.154,316.128 231.853,319.423 231.319 C 323.494 230.658,325.590 221.979,322.547 218.382 C 322.259 218.041,321.804 216.781,321.537 215.582 C 321.269 214.382,320.738 212.990,320.358 212.488 C 319.978 211.987,319.539 210.817,319.384 209.888 C 319.229 208.960,318.780 207.744,318.386 207.186 C 317.991 206.629,317.537 205.469,317.375 204.609 C 317.214 203.749,316.768 202.495,316.385 201.823 C 316.002 201.150,315.564 199.890,315.411 199.021 C 315.259 198.153,314.810 197.030,314.413 196.526 C 314.017 196.022,313.567 194.774,313.414 193.752 L 313.135 191.895 312.373 193.147 C 311.955 193.836,311.449 194.400,311.249 194.400 C 311.050 194.400,310.777 194.838,310.642 195.373 C 310.508 195.909,310.058 196.455,309.642 196.587 C 309.227 196.719,308.796 197.172,308.685 197.595 C 308.401 198.683,306.617 199.005,303.942 198.452 C 297.196 197.059,296.627 198.125,296.492 212.400 C 296.353 227.007,296.424 226.809,291.313 226.795 C 285.871 226.779,286.000 227.249,286.000 207.400 C 286.000 187.908,285.834 188.647,290.400 187.849 C 292.065 187.558,294.054 187.925,294.883 188.675 M129.972 198.361 C 129.407 198.543,128.462 199.175,127.872 199.764 L 126.800 200.836 126.800 207.398 L 126.800 213.959 128.100 214.920 C 128.815 215.449,129.715 215.993,130.100 216.128 C 130.485 216.264,130.800 216.561,130.800 216.787 C 130.800 217.325,132.917 217.323,133.456 216.784 C 133.685 216.555,134.486 216.041,135.236 215.641 C 137.441 214.467,137.639 213.712,137.513 207.000 C 137.369 199.341,137.010 198.659,132.905 198.229 C 131.857 198.120,130.537 198.179,129.972 198.361 M69.900 204.727 L 68.800 204.853 68.800 210.016 L 68.800 215.179 69.980 215.790 C 72.559 217.123,83.101 216.254,84.800 214.567 C 86.080 213.297,85.864 207.595,84.481 206.148 L 83.288 204.900 77.144 204.750 C 73.765 204.667,70.505 204.657,69.900 204.727 M164.800 210.136 C 164.800 216.562,164.645 216.403,170.919 216.394 C 179.329 216.381,181.600 215.108,181.600 210.406 C 181.600 207.834,181.513 207.565,180.253 206.228 L 178.906 204.800 171.853 204.800 L 164.800 204.800 164.800 210.136 M265.200 211.169 C 259.064 211.654,256.739 213.699,259.458 216.219 C 260.706 217.375,267.137 217.678,268.499 216.644 C 269.771 215.678,269.929 210.695,268.682 210.866 C 268.417 210.903,266.850 211.039,265.200 211.169 " stroke="none" fill="#0484e4" fill-rule="evenodd"></path><path id="path3" d="M60.800 176.000 C 60.019 176.781,60.000 177.333,60.000 199.781 C 60.000 224.775,59.986 224.611,62.184 225.023 C 65.247 225.598,84.539 224.976,86.498 224.240 C 95.563 220.832,98.119 208.450,91.175 201.582 L 88.528 198.965 90.263 197.455 C 97.828 190.874,94.622 178.061,84.855 175.840 C 80.216 174.785,61.893 174.907,60.800 176.000 M103.200 176.000 C 102.338 176.862,102.064 180.449,102.774 181.572 C 103.341 182.468,107.748 182.657,108.997 181.839 C 111.893 179.941,109.895 175.200,106.200 175.200 C 104.533 175.200,103.806 175.394,103.200 176.000 M156.800 176.000 C 156.019 176.781,156.000 177.333,156.000 199.781 C 156.000 224.820,155.982 224.610,158.210 225.028 C 161.325 225.613,180.529 224.967,182.568 224.210 C 191.497 220.892,193.953 208.095,186.951 201.375 L 184.424 198.950 186.160 197.498 C 194.036 190.915,190.404 177.718,180.149 175.658 C 175.794 174.784,157.752 175.048,156.800 176.000 M199.600 175.492 C 198.409 175.945,197.845 180.103,198.774 181.572 C 199.341 182.468,203.748 182.657,204.997 181.839 C 206.341 180.958,206.470 177.270,205.200 176.000 C 204.405 175.205,201.132 174.908,199.600 175.492 M87.400 177.682 C 95.036 182.846,95.804 190.979,89.232 197.067 L 87.000 199.134 88.784 200.667 C 93.540 204.755,94.301 206.560,93.869 212.724 C 93.487 218.169,90.021 222.452,85.074 223.594 C 82.874 224.102,63.155 224.115,61.826 223.610 L 60.800 223.220 60.800 200.039 C 60.800 178.304,60.844 176.846,61.500 176.662 C 61.885 176.555,67.510 176.496,74.000 176.533 L 85.800 176.600 87.400 177.682 M108.300 176.652 C 109.236 176.903,109.485 178.295,108.950 180.290 C 108.674 181.322,106.781 181.835,104.831 181.407 C 103.491 181.112,102.881 177.157,104.100 176.665 C 104.815 176.376,107.243 176.369,108.300 176.652 M183.400 177.712 C 185.917 179.462,187.582 180.958,187.591 181.477 C 187.596 181.740,187.995 182.623,188.477 183.441 C 190.787 187.355,189.418 193.079,185.223 197.047 L 183.058 199.094 184.052 200.047 C 184.599 200.571,185.666 201.577,186.423 202.282 C 188.846 204.539,189.194 205.148,189.682 207.996 C 190.967 215.491,187.302 222.157,181.111 223.586 C 178.884 224.099,159.168 224.120,157.826 223.610 L 156.800 223.220 156.800 200.043 C 156.800 181.885,156.908 176.820,157.300 176.649 C 157.575 176.529,163.200 176.469,169.800 176.516 L 181.800 176.600 183.400 177.712 M204.344 176.664 C 205.215 176.897,205.398 180.335,204.583 181.151 C 204.004 181.729,200.485 181.628,199.872 181.015 C 198.923 180.066,198.943 176.926,199.900 176.676 C 200.989 176.391,203.302 176.385,204.344 176.664 M68.000 182.000 C 66.831 183.169,66.773 195.090,67.931 196.138 C 68.938 197.048,80.924 197.115,82.913 196.222 C 86.292 194.703,89.046 188.886,87.240 187.080 C 86.998 186.838,86.800 186.317,86.800 185.921 C 86.800 184.478,84.106 182.089,81.960 181.629 C 78.199 180.822,68.931 181.069,68.000 182.000 M164.100 181.797 C 162.835 182.708,162.691 195.015,163.931 196.138 C 164.938 197.048,176.924 197.115,178.913 196.222 C 184.812 193.571,184.981 185.159,179.200 181.970 C 177.591 181.082,165.287 180.941,164.100 181.797 M83.615 183.410 C 87.465 186.078,87.525 191.785,83.733 194.679 C 81.806 196.150,69.501 196.700,68.521 195.359 C 67.650 194.168,67.798 183.687,68.700 182.687 C 69.976 181.274,81.326 181.824,83.615 183.410 M177.080 182.419 C 183.343 183.788,184.474 192.087,178.806 195.084 C 176.784 196.153,165.458 196.498,164.480 195.520 C 163.631 194.671,163.826 183.220,164.700 182.557 C 165.570 181.897,174.247 181.800,177.080 182.419 M228.983 189.403 C 227.892 189.654,226.112 190.316,225.027 190.874 L 223.054 191.888 222.092 190.744 C 220.939 189.374,217.528 189.104,215.786 190.246 L 214.800 190.892 214.800 207.064 L 214.800 223.236 215.782 224.218 C 216.586 225.022,217.161 225.200,218.959 225.200 C 222.448 225.200,222.400 225.374,222.400 212.605 C 222.400 202.833,222.472 201.654,223.142 200.404 C 225.844 195.366,232.312 195.149,235.326 199.994 C 236.163 201.340,236.204 201.863,236.286 212.341 C 236.334 218.359,236.478 223.614,236.606 224.020 C 237.024 225.337,241.616 225.549,243.098 224.319 C 244.121 223.470,243.744 199.483,242.663 196.664 C 240.611 191.309,234.590 188.113,228.983 189.403 M260.000 189.421 C 252.934 190.934,250.764 194.011,254.815 196.773 L 256.829 198.145 258.715 197.223 C 264.589 194.351,271.200 196.360,271.200 201.018 C 271.200 203.796,271.277 203.764,264.000 204.008 C 253.928 204.345,250.032 207.288,250.009 214.574 C 249.983 222.615,258.757 227.774,267.400 224.800 C 270.143 223.856,271.126 223.818,272.176 224.613 C 273.326 225.482,276.905 225.389,277.738 224.469 C 278.567 223.552,278.747 198.750,277.942 196.360 C 276.086 190.847,267.978 187.711,260.000 189.421 M126.143 189.636 C 122.663 190.645,119.346 194.278,118.372 198.147 C 117.445 201.826,118.056 216.293,119.245 218.828 C 122.108 224.934,130.707 227.436,136.280 223.784 C 138.930 222.048,139.783 226.219,137.493 229.715 C 135.532 232.707,129.319 233.261,126.046 230.736 C 124.617 229.634,123.347 229.837,121.376 231.485 C 119.007 233.465,118.989 234.610,121.300 236.478 C 128.851 242.582,140.678 240.182,144.869 231.695 L 146.200 229.000 146.325 210.059 C 146.469 188.236,146.699 189.600,142.870 189.600 C 141.450 189.600,140.422 189.818,139.987 190.212 C 138.901 191.194,136.920 191.627,136.396 190.995 C 135.164 189.511,129.272 188.730,126.143 189.636 M299.810 189.839 C 298.935 190.159,298.044 190.596,297.830 190.810 C 297.195 191.445,295.473 191.239,294.400 190.400 C 293.684 189.840,292.765 189.615,291.162 189.609 C 287.398 189.594,287.600 188.610,287.600 206.958 C 287.600 225.601,287.516 225.182,291.256 225.194 C 294.867 225.206,294.802 225.424,294.918 212.800 C 295.060 197.308,296.240 195.497,305.228 196.985 C 308.027 197.449,311.632 193.502,310.441 191.277 C 309.461 189.446,303.197 188.599,299.810 189.839 M103.600 189.892 C 102.463 190.325,102.412 191.057,102.406 207.224 C 102.399 226.162,102.151 225.000,106.200 225.000 C 110.249 225.000,110.000 226.166,110.000 207.186 C 110.000 188.482,110.226 189.575,106.369 189.632 C 105.176 189.649,103.930 189.766,103.600 189.892 M199.600 189.892 C 198.463 190.324,198.412 191.055,198.412 207.000 C 198.411 225.563,198.301 224.676,200.639 225.027 C 206.098 225.845,206.000 226.178,206.000 206.804 L 206.000 190.845 205.111 190.223 C 204.238 189.611,200.868 189.409,199.600 189.892 M314.362 190.246 C 313.798 190.925,314.382 192.829,318.208 202.800 C 319.011 204.890,319.907 207.320,320.200 208.200 C 320.493 209.080,321.297 211.240,321.988 213.000 C 326.037 223.319,326.094 223.652,324.536 227.934 C 323.377 231.119,322.511 231.979,320.066 232.374 C 317.159 232.844,316.750 239.139,319.600 239.541 C 324.001 240.162,328.682 236.845,330.525 231.800 C 330.846 230.920,332.007 227.680,333.105 224.600 C 334.202 221.520,335.211 218.730,335.347 218.400 C 335.637 217.695,338.940 208.383,340.028 205.200 C 340.442 203.990,341.339 201.470,342.022 199.600 C 345.560 189.906,345.534 189.600,341.168 189.600 C 337.724 189.600,337.626 189.749,334.178 200.200 C 331.488 208.355,329.533 212.866,328.945 212.278 C 328.736 212.069,323.658 197.460,322.352 193.312 C 321.895 191.857,321.207 190.570,320.696 190.212 C 319.467 189.351,315.085 189.375,314.362 190.246 M268.932 190.593 C 270.477 190.740,271.756 191.149,272.725 191.807 C 273.528 192.353,274.414 192.800,274.693 192.800 C 274.972 192.800,275.200 192.992,275.200 193.227 C 275.200 193.461,275.695 194.302,276.300 195.095 L 277.400 196.536 277.400 210.168 L 277.400 223.800 275.250 223.923 C 273.510 224.022,272.930 223.885,272.207 223.206 L 271.314 222.367 268.286 223.384 C 263.445 225.009,257.473 224.511,254.797 222.259 C 254.105 221.677,253.372 221.200,253.169 221.200 C 252.966 221.200,252.800 220.972,252.800 220.693 C 252.800 220.414,252.350 219.523,251.800 218.714 C 250.441 216.714,250.374 212.608,251.665 210.447 C 254.303 206.032,257.225 204.800,265.055 204.800 C 272.057 204.800,272.608 204.514,272.319 201.023 C 272.089 198.250,270.548 196.179,268.255 195.560 C 265.557 194.832,259.840 195.272,258.428 196.316 L 257.251 197.186 255.625 196.122 C 251.252 193.259,256.878 189.650,264.800 190.238 C 265.790 190.311,267.649 190.471,268.932 190.593 M107.954 190.651 L 109.209 190.902 109.104 207.151 L 109.000 223.400 107.489 223.773 C 106.542 224.007,105.571 224.004,104.889 223.764 L 103.800 223.381 103.696 207.121 C 103.598 191.881,103.635 190.849,104.296 190.677 C 105.404 190.387,106.595 190.379,107.954 190.651 M135.568 191.474 C 137.012 193.024,138.781 193.092,139.972 191.644 C 141.029 190.358,142.480 190.057,144.728 190.659 L 145.655 190.908 145.511 209.754 C 145.368 228.275,145.351 228.629,144.483 230.281 C 143.997 231.205,143.600 232.128,143.600 232.332 C 143.600 232.668,141.543 234.813,139.664 236.436 C 138.659 237.304,132.825 239.200,131.157 239.200 C 129.535 239.200,123.566 237.312,123.000 236.620 C 122.780 236.351,122.195 235.915,121.700 235.651 C 120.791 235.167,120.359 232.800,121.179 232.800 C 121.388 232.800,122.044 232.350,122.638 231.800 C 123.848 230.679,125.109 230.498,125.454 231.396 C 125.580 231.724,126.429 232.195,127.341 232.441 C 128.254 232.688,129.457 233.056,130.015 233.258 C 132.432 234.136,138.800 231.272,138.800 229.307 C 138.800 229.013,139.081 228.343,139.425 227.819 C 140.082 226.815,140.281 224.316,139.819 222.861 C 139.485 221.809,137.429 221.669,136.372 222.626 C 131.842 226.725,122.287 223.825,119.862 217.616 C 118.407 213.891,118.229 200.287,119.600 197.600 C 120.040 196.738,120.406 195.800,120.413 195.516 C 120.439 194.460,124.138 191.141,125.813 190.671 C 128.010 190.055,134.764 190.610,135.568 191.474 M204.720 190.986 C 204.874 191.140,205.054 198.418,205.121 207.159 L 205.242 223.053 204.202 223.526 C 202.887 224.126,201.521 224.129,200.219 223.536 L 199.200 223.072 199.200 206.964 L 199.200 190.856 200.100 190.662 C 201.272 190.410,204.360 190.627,204.720 190.986 M220.616 190.630 C 221.064 190.751,221.604 191.243,221.816 191.725 C 222.373 192.994,223.615 192.992,225.419 191.717 C 227.612 190.168,235.790 189.995,237.164 191.469 C 237.609 191.947,238.339 192.454,238.786 192.596 C 239.234 192.738,239.600 193.022,239.600 193.227 C 239.600 193.432,239.950 193.950,240.378 194.378 C 242.577 196.577,244.118 221.916,242.144 223.411 C 241.237 224.098,239.191 224.161,237.836 223.543 L 236.834 223.087 236.717 211.365 L 236.600 199.643 235.200 198.187 C 231.472 194.311,225.969 194.645,222.743 198.943 C 221.811 200.185,221.799 200.333,221.682 211.581 C 221.551 224.246,221.607 224.000,218.831 224.000 C 215.865 224.000,216.000 224.772,216.000 207.746 C 216.000 189.320,215.982 189.385,220.616 190.630 M293.367 190.643 C 293.715 190.776,294.000 191.114,294.000 191.394 C 294.000 193.032,296.925 193.075,298.541 191.459 C 299.652 190.348,308.533 190.132,309.208 191.200 C 309.865 192.239,309.640 193.127,308.346 194.601 L 307.092 196.029 303.246 195.771 L 299.400 195.513 297.551 196.936 C 294.106 199.587,294.000 200.047,294.000 212.332 C 294.000 220.127,293.869 223.171,293.520 223.520 C 292.916 224.124,289.341 224.152,288.973 223.556 C 288.664 223.057,288.737 191.226,289.048 190.723 C 289.280 190.346,292.442 190.288,293.367 190.643 M320.467 191.107 C 320.698 191.338,321.224 192.669,321.635 194.064 C 322.888 198.318,324.046 201.748,324.585 202.800 C 324.866 203.350,325.316 204.740,325.585 205.888 C 325.854 207.036,326.417 208.650,326.837 209.473 C 327.257 210.296,327.600 211.207,327.600 211.499 C 327.600 215.620,331.299 213.313,332.445 208.477 C 332.690 207.445,333.218 205.880,333.619 205.000 C 334.020 204.120,334.477 202.680,334.634 201.800 C 334.792 200.920,335.152 199.840,335.434 199.400 C 335.717 198.960,336.161 197.700,336.422 196.600 C 336.683 195.500,337.346 193.655,337.895 192.500 L 338.894 190.400 340.814 190.400 C 344.014 190.400,344.617 191.916,342.643 195.000 C 342.362 195.440,341.910 196.700,341.640 197.800 C 341.369 198.900,340.919 200.160,340.640 200.600 C 340.360 201.040,339.917 202.265,339.654 203.323 C 339.392 204.381,338.822 205.908,338.388 206.717 C 337.955 207.526,337.598 208.551,337.596 208.994 C 337.594 209.437,337.144 210.763,336.596 211.940 C 336.048 213.117,335.598 214.377,335.596 214.740 C 335.594 215.103,335.150 216.300,334.609 217.400 C 334.068 218.500,333.619 219.767,333.613 220.215 C 333.606 220.664,333.250 221.716,332.823 222.554 C 332.396 223.392,331.930 224.646,331.788 225.339 C 331.646 226.033,331.199 227.320,330.794 228.200 C 330.389 229.080,329.861 230.520,329.621 231.400 C 328.414 235.833,322.863 239.584,319.449 238.274 C 317.185 237.405,319.447 232.800,322.138 232.800 C 322.954 232.800,324.367 231.274,324.649 230.089 C 324.791 229.490,325.152 228.717,325.450 228.372 C 326.894 226.703,326.718 219.200,325.234 219.200 C 325.045 219.200,324.775 218.429,324.634 217.487 C 324.493 216.545,324.054 215.240,323.659 214.587 C 323.263 213.934,322.715 212.500,322.440 211.400 C 322.165 210.300,321.706 209.130,321.421 208.800 C 321.135 208.470,320.775 207.480,320.621 206.600 C 320.467 205.720,320.014 204.437,319.613 203.749 C 319.213 203.062,318.757 201.892,318.599 201.149 C 318.442 200.407,317.995 199.170,317.606 198.400 C 317.216 197.630,316.599 195.971,316.233 194.714 C 315.867 193.456,315.395 192.321,315.184 192.190 C 314.556 191.802,314.747 190.874,315.500 190.655 C 316.604 190.334,320.003 190.643,320.467 191.107 M127.871 196.836 C 121.541 201.029,123.001 217.351,129.822 218.630 C 133.643 219.347,137.925 217.781,138.651 215.400 C 138.785 214.960,139.185 214.270,139.540 213.866 C 140.478 212.800,140.465 201.587,139.524 200.517 C 139.178 200.123,138.775 199.406,138.628 198.925 C 137.668 195.769,131.338 194.540,127.871 196.836 M136.208 197.833 C 140.619 201.198,140.192 213.960,135.563 217.135 C 132.519 219.223,127.137 217.478,125.899 214.000 C 125.084 211.713,125.229 201.713,126.100 200.121 C 128.095 196.471,132.975 195.367,136.208 197.833 M68.176 202.567 C 67.468 203.084,67.389 203.748,67.275 210.141 C 67.107 219.504,66.539 218.928,75.739 218.731 C 82.551 218.585,83.686 218.372,85.085 216.973 C 85.360 216.697,85.724 216.410,85.893 216.336 C 90.081 214.485,88.731 205.651,83.874 203.119 C 81.379 201.819,69.761 201.410,68.176 202.567 M164.000 202.800 C 163.263 203.537,163.200 204.133,163.200 210.400 C 163.200 219.491,162.614 218.923,171.800 218.739 L 178.722 218.600 180.461 217.340 C 182.976 215.519,184.400 213.021,184.400 210.434 C 184.400 208.698,183.694 206.400,183.161 206.400 C 182.962 206.400,182.800 206.161,182.800 205.870 C 182.800 202.663,166.757 200.043,164.000 202.800 M80.670 203.241 C 88.160 204.546,90.036 213.225,83.600 216.800 C 81.110 218.183,69.545 218.355,68.569 217.024 C 67.026 214.919,68.004 203.419,69.755 203.075 C 71.562 202.720,78.260 202.822,80.670 203.241 M177.052 203.331 C 183.980 204.783,185.670 213.174,179.737 216.662 C 177.463 217.998,166.104 218.442,164.664 217.251 C 163.807 216.543,163.666 204.986,164.500 203.905 C 165.384 202.759,172.723 202.423,177.052 203.331 M261.000 209.380 C 260.780 209.463,260.113 209.637,259.517 209.768 C 257.760 210.155,256.004 212.332,256.002 214.127 C 255.997 218.459,261.190 220.511,268.303 218.988 C 271.470 218.309,273.774 212.169,271.600 210.199 C 270.776 209.452,262.512 208.814,261.000 209.380 M269.940 210.439 C 272.928 211.481,270.916 217.694,267.420 218.218 C 259.632 219.386,254.386 215.915,257.936 211.942 C 259.507 210.183,266.642 209.289,269.940 210.439 " stroke="none" fill="#9bccf4" fill-rule="evenodd"></path><path id="path4" d="M60.000 174.400 C 58.944 175.456,58.723 224.395,59.768 225.824 C 60.681 227.072,84.563 227.020,86.267 225.766 C 86.890 225.307,87.931 224.800,88.580 224.638 C 89.229 224.477,90.161 223.952,90.651 223.472 C 91.141 222.993,91.780 222.366,92.071 222.080 C 92.362 221.795,92.996 221.185,93.480 220.725 C 93.964 220.266,94.482 219.337,94.631 218.661 C 94.779 217.985,95.283 216.914,95.750 216.282 C 97.044 214.532,97.011 207.423,95.700 205.650 C 95.205 204.980,94.800 204.132,94.800 203.764 C 94.800 203.397,93.846 202.165,92.680 201.027 L 90.561 198.957 92.085 197.579 C 93.843 195.988,94.795 194.433,94.813 193.120 C 94.820 192.614,95.090 191.851,95.413 191.424 C 96.160 190.436,96.190 186.455,95.458 185.389 C 95.161 184.955,94.812 183.792,94.684 182.804 C 94.538 181.682,94.141 180.758,93.625 180.340 C 93.171 179.972,92.800 179.491,92.800 179.270 C 92.800 178.649,88.803 175.613,87.638 175.349 C 87.067 175.220,85.868 174.774,84.974 174.357 C 82.414 173.165,61.198 173.202,60.000 174.400 M102.162 174.442 C 100.881 175.857,101.050 182.019,102.400 183.142 C 103.930 184.414,108.711 184.372,109.930 183.074 C 111.251 181.669,111.236 175.151,109.911 174.223 C 108.461 173.207,103.144 173.357,102.162 174.442 M156.000 174.400 C 154.943 175.457,154.723 224.395,155.768 225.824 C 156.976 227.474,182.800 226.865,182.800 225.186 C 182.800 224.631,181.450 224.710,180.861 225.300 C 180.491 225.671,177.415 225.832,168.985 225.923 L 157.609 226.046 156.605 225.041 L 155.600 224.036 155.600 200.392 C 155.600 176.745,155.662 175.573,156.960 174.706 C 159.372 173.096,182.566 174.835,184.915 176.803 C 185.182 177.026,185.887 177.573,186.481 178.019 C 187.842 179.038,189.863 182.005,190.354 183.705 L 190.728 185.000 190.764 183.674 C 190.804 182.214,190.342 181.142,189.170 179.970 C 188.746 179.546,188.400 179.044,188.400 178.854 C 188.400 178.291,184.724 175.594,183.618 175.344 C 183.058 175.218,181.868 174.774,180.974 174.357 C 178.414 173.165,157.198 173.202,156.000 174.400 M198.029 174.654 C 196.772 176.252,196.824 181.438,198.113 182.938 C 199.412 184.450,204.553 184.540,205.930 183.074 C 207.178 181.746,207.227 175.627,206.000 174.400 C 204.654 173.054,199.149 173.230,198.029 174.654 M84.121 175.049 C 88.012 175.925,92.800 178.915,92.800 180.467 C 92.800 180.668,93.187 181.356,93.660 181.995 C 96.116 185.317,95.051 193.261,91.692 196.672 L 89.400 199.000 91.867 201.401 C 93.353 202.846,94.442 204.279,94.605 205.001 C 94.754 205.660,95.128 206.767,95.438 207.460 C 96.974 210.903,93.756 221.990,91.218 222.001 C 91.098 222.001,90.406 222.510,89.679 223.131 C 86.919 225.490,83.788 226.000,72.063 226.000 L 61.564 226.000 60.582 225.018 L 59.600 224.036 59.600 200.200 L 59.600 176.364 60.582 175.382 L 61.564 174.400 71.403 174.400 C 79.027 174.400,81.890 174.546,84.121 175.049 M109.848 175.398 C 110.646 176.489,110.591 181.352,109.771 182.171 C 108.764 183.179,102.970 183.065,102.414 182.026 C 101.832 180.940,101.894 176.287,102.500 175.522 C 103.604 174.130,108.856 174.042,109.848 175.398 M205.418 175.382 C 206.652 176.616,206.854 180.835,205.738 182.069 C 204.670 183.248,199.077 183.131,198.223 181.911 C 197.520 180.908,197.395 177.792,197.994 176.215 C 198.771 174.172,203.660 173.623,205.418 175.382 M68.603 184.900 C 68.463 186.055,68.413 188.440,68.493 190.200 C 68.634 193.280,68.642 193.243,68.720 189.222 C 68.795 185.286,68.862 184.979,69.875 183.922 L 70.950 182.800 69.904 182.800 C 68.941 182.800,68.837 182.967,68.603 184.900 M80.900 183.859 C 82.850 184.501,84.000 185.091,84.000 185.452 C 84.000 185.767,84.270 186.129,84.600 186.255 C 85.673 186.667,85.418 191.256,84.262 192.342 C 81.316 195.109,72.748 196.357,70.021 194.415 C 68.815 193.556,68.800 193.556,68.800 194.355 C 68.800 196.271,80.389 196.149,83.195 194.204 C 88.341 190.637,85.945 182.756,79.735 182.820 L 77.800 182.840 80.900 183.859 M164.579 184.600 C 164.114 187.702,164.536 194.788,165.211 195.215 C 165.973 195.697,175.415 195.712,177.081 195.234 C 184.134 193.211,183.022 182.749,175.762 182.819 L 173.800 182.837 176.522 183.740 C 180.057 184.913,181.166 186.181,181.186 189.079 C 181.213 193.034,178.287 194.835,171.400 195.105 C 165.044 195.354,164.800 195.128,164.800 189.004 C 164.800 184.520,164.813 184.457,165.900 183.646 L 167.000 182.825 165.925 182.813 C 164.954 182.801,164.823 182.975,164.579 184.600 M190.800 187.943 C 190.800 191.288,190.133 194.374,189.344 194.677 C 189.045 194.792,188.798 195.091,188.795 195.343 C 188.793 195.594,188.028 196.508,187.095 197.374 L 185.400 198.948 187.800 201.385 C 194.199 207.880,192.850 218.227,184.903 223.610 L 183.000 224.899 184.355 224.648 C 185.100 224.511,186.122 223.993,186.626 223.499 C 187.778 222.368,188.368 221.778,189.499 220.626 C 189.993 220.122,190.517 219.117,190.661 218.393 C 190.806 217.668,191.233 216.767,191.610 216.390 C 193.091 214.909,193.052 207.737,191.554 205.832 C 191.139 205.305,190.800 204.482,190.800 204.002 C 190.800 203.473,189.937 202.288,188.602 200.984 C 186.827 199.252,186.521 198.772,187.015 198.496 C 188.313 197.769,190.800 194.302,190.800 193.218 C 190.800 192.616,191.092 191.539,191.448 190.824 C 192.154 189.409,192.035 186.275,191.245 185.485 C 190.918 185.158,190.800 185.811,190.800 187.943 M103.942 187.866 C 101.338 188.306,101.400 187.831,101.400 207.428 C 101.400 228.356,100.956 226.600,106.247 226.600 C 109.168 226.600,109.747 226.487,110.232 225.824 C 111.187 224.518,111.063 189.998,110.100 188.868 C 109.374 188.017,106.152 187.493,103.942 187.866 M126.400 187.884 C 126.070 188.005,125.530 188.327,125.200 188.598 C 124.870 188.870,124.148 189.199,123.596 189.330 C 122.371 189.619,120.180 191.632,118.685 193.840 C 116.947 196.406,115.944 206.167,116.765 212.513 C 117.027 214.541,117.336 216.978,117.450 217.929 C 117.564 218.880,117.973 219.973,118.359 220.359 C 118.745 220.745,119.183 221.379,119.333 221.769 C 119.482 222.158,119.963 222.570,120.402 222.685 C 120.841 222.799,121.200 223.141,121.200 223.444 C 121.200 223.961,122.348 224.690,125.574 226.220 C 127.709 227.234,133.916 226.910,135.551 225.700 C 138.460 223.548,138.441 227.089,135.530 229.647 C 133.624 231.320,129.179 231.965,128.671 230.642 C 128.359 229.828,124.556 228.669,123.134 228.953 C 120.907 229.399,117.521 232.715,117.816 234.164 C 118.081 235.466,121.327 238.757,122.374 238.785 C 122.690 238.793,123.380 239.205,123.906 239.700 C 124.818 240.556,125.178 240.600,131.268 240.600 C 137.425 240.600,137.699 240.566,138.399 239.700 C 138.800 239.205,139.471 238.800,139.891 238.800 C 140.668 238.800,143.825 235.905,145.562 233.600 C 146.221 232.726,146.565 231.673,146.653 230.261 L 146.781 228.200 146.380 229.780 C 146.160 230.649,145.749 231.639,145.467 231.980 C 145.185 232.321,144.757 233.067,144.514 233.637 C 144.081 234.659,140.053 238.388,139.357 238.413 C 139.161 238.419,138.100 238.868,137.000 239.409 C 134.293 240.740,128.240 240.844,125.800 239.600 C 124.937 239.160,124.015 238.800,123.752 238.800 C 122.584 238.800,118.800 235.163,118.800 234.041 C 118.800 231.045,124.260 228.585,126.778 230.447 C 130.403 233.127,137.123 231.405,137.791 227.624 C 137.929 226.841,138.132 225.896,138.241 225.524 C 138.635 224.178,137.123 223.981,134.984 225.101 C 129.615 227.913,122.341 225.377,118.806 219.461 C 116.602 215.771,116.755 198.996,119.031 194.814 C 122.290 188.825,131.792 186.410,136.551 190.359 C 136.893 190.643,137.634 190.473,139.020 189.795 C 141.596 188.533,144.842 188.442,146.000 189.600 C 146.777 190.377,146.800 190.933,146.800 209.280 C 146.800 224.384,146.900 228.060,147.300 227.660 C 147.683 227.278,147.823 222.865,147.896 208.880 L 147.993 190.600 146.891 189.281 C 145.476 187.586,140.793 187.166,139.212 188.592 C 138.279 189.434,135.336 189.648,134.855 188.910 C 134.109 187.767,128.552 187.092,126.400 187.884 M199.909 187.886 C 197.186 188.299,197.200 188.201,197.200 207.410 C 197.200 228.155,196.795 226.604,202.202 226.594 C 205.163 226.588,205.757 226.474,206.237 225.817 C 207.027 224.736,207.077 190.132,206.289 189.054 C 205.485 187.954,202.752 187.454,199.909 187.886 M215.731 188.183 C 213.593 189.113,213.600 189.053,213.600 207.529 C 213.600 227.351,213.381 226.207,217.265 226.646 C 223.612 227.363,224.000 226.595,224.000 213.312 C 224.000 207.358,224.185 202.553,224.466 201.190 L 224.933 198.933 227.245 198.455 C 230.941 197.692,232.886 198.359,234.180 200.835 L 235.200 202.785 235.200 213.748 C 235.200 227.162,234.990 226.600,240.000 226.600 C 245.156 226.600,244.862 227.599,244.719 210.564 C 244.601 196.570,244.593 196.456,243.700 195.506 C 243.205 194.979,242.800 194.266,242.800 193.920 C 242.800 190.031,230.015 185.689,226.891 188.517 C 225.700 189.596,223.292 189.879,222.661 189.015 C 221.751 187.771,217.775 187.294,215.731 188.183 M258.800 187.864 C 258.470 187.996,257.930 188.327,257.600 188.598 C 257.270 188.870,256.478 189.217,255.839 189.369 C 251.995 190.285,249.124 196.800,252.565 196.800 C 252.861 196.800,253.349 197.170,253.651 197.621 C 254.800 199.341,257.974 199.339,261.424 197.618 C 262.810 196.927,262.879 196.830,262.000 196.818 C 261.450 196.810,260.147 197.236,259.104 197.765 C 257.107 198.779,256.144 198.754,254.935 197.659 C 254.531 197.293,253.705 196.676,253.100 196.288 C 251.314 195.141,251.553 193.217,253.700 191.468 C 259.068 187.095,270.988 187.485,275.810 192.193 C 278.959 195.267,279.000 195.512,279.000 211.135 L 279.000 224.470 278.056 225.235 C 276.888 226.181,273.334 226.288,272.176 225.413 C 271.121 224.614,268.998 224.652,267.717 225.491 C 266.045 226.586,259.602 226.463,257.122 225.289 C 256.089 224.800,255.123 224.400,254.975 224.400 C 253.361 224.400,250.013 219.620,249.513 216.604 C 248.124 208.221,253.020 203.600,263.290 203.600 C 269.899 203.600,270.400 203.419,270.400 201.028 C 270.400 198.710,268.734 196.793,266.740 196.815 C 265.413 196.829,265.421 196.839,267.500 197.845 C 269.382 198.756,269.599 198.993,269.595 200.131 C 269.582 202.963,269.418 203.108,266.468 202.901 C 259.982 202.446,251.600 204.424,251.600 206.409 C 251.600 206.560,251.158 207.160,250.618 207.743 C 250.078 208.326,249.524 209.477,249.388 210.301 C 249.251 211.126,248.944 212.313,248.704 212.940 C 248.390 213.765,248.392 214.596,248.713 215.940 C 248.957 216.963,249.262 218.340,249.391 219.000 C 249.666 220.417,253.382 224.800,254.307 224.800 C 254.660 224.800,255.371 225.197,255.888 225.682 C 257.168 226.885,265.923 227.296,268.017 226.251 C 269.200 225.661,269.487 225.661,271.510 226.249 C 274.663 227.166,277.735 226.846,279.126 225.456 L 280.200 224.383 280.318 212.722 C 280.386 205.896,280.270 200.385,280.037 199.431 C 278.766 194.232,278.452 193.563,276.349 191.589 C 275.204 190.514,273.712 189.519,273.033 189.378 C 272.355 189.237,271.350 188.826,270.800 188.464 C 269.776 187.792,260.181 187.312,258.800 187.864 M290.400 187.849 C 285.834 188.647,286.000 187.908,286.000 207.400 C 286.000 227.249,285.871 226.779,291.313 226.795 C 296.424 226.809,296.353 227.007,296.492 212.400 C 296.627 198.125,297.196 197.059,303.942 198.452 C 306.617 199.005,308.401 198.683,308.685 197.595 C 308.796 197.172,309.227 196.719,309.642 196.587 C 310.058 196.455,310.508 195.909,310.642 195.373 C 310.777 194.838,311.050 194.400,311.249 194.400 C 311.449 194.400,311.955 193.836,312.373 193.147 L 313.135 191.895 313.414 193.752 C 313.567 194.774,314.017 196.022,314.413 196.526 C 314.810 197.030,315.259 198.153,315.411 199.021 C 315.564 199.890,316.002 201.150,316.385 201.823 C 316.768 202.495,317.214 203.749,317.375 204.609 C 317.537 205.469,317.991 206.629,318.386 207.186 C 318.780 207.744,319.229 208.960,319.384 209.888 C 319.539 210.817,319.978 211.987,320.358 212.488 C 320.738 212.990,321.269 214.382,321.537 215.582 C 321.804 216.781,322.259 218.041,322.547 218.382 C 325.590 221.979,323.494 230.658,319.423 231.319 C 316.128 231.853,314.714 237.154,317.170 239.768 C 318.612 241.303,325.270 241.090,326.289 239.476 C 326.460 239.205,327.095 238.766,327.700 238.500 C 328.305 238.235,328.800 237.841,328.800 237.627 C 328.800 237.412,329.250 236.786,329.800 236.236 C 330.350 235.686,330.800 234.835,330.800 234.344 C 330.800 233.853,331.159 233.070,331.597 232.603 C 332.053 232.118,332.503 230.909,332.650 229.777 C 332.790 228.690,333.240 227.430,333.650 226.977 C 334.059 226.525,334.515 225.270,334.663 224.189 C 334.812 223.108,335.243 221.891,335.622 221.484 C 336.324 220.731,336.800 219.060,336.800 217.350 C 336.800 216.827,336.960 216.400,337.157 216.400 C 337.668 216.400,338.800 213.393,338.800 212.035 C 338.800 211.403,339.059 210.786,339.375 210.665 C 339.990 210.429,340.794 208.032,340.798 206.426 C 340.799 205.890,341.159 205.070,341.597 204.603 C 342.053 204.118,342.503 202.909,342.650 201.777 C 342.790 200.690,343.240 199.430,343.650 198.977 C 344.059 198.525,344.515 197.270,344.663 196.189 C 344.812 195.108,345.245 193.889,345.626 193.480 C 347.394 191.582,346.551 188.687,344.033 188.009 C 339.804 186.870,335.927 188.800,335.410 192.302 C 335.255 193.346,334.868 194.491,334.550 194.847 C 334.232 195.203,333.751 196.572,333.483 197.889 C 333.214 199.206,332.763 200.563,332.480 200.904 C 332.197 201.245,331.747 202.595,331.480 203.904 C 331.213 205.213,330.788 206.535,330.536 206.842 C 330.284 207.149,329.821 208.030,329.508 208.800 L 328.938 210.200 328.677 208.009 C 328.534 206.804,328.082 205.364,327.674 204.809 C 327.265 204.254,326.810 202.900,326.663 201.800 C 326.515 200.700,326.065 199.350,325.663 198.800 C 325.260 198.250,324.810 196.910,324.663 195.823 C 324.511 194.708,324.046 193.475,323.597 192.997 C 323.159 192.530,322.800 191.672,322.800 191.090 C 322.800 188.021,315.256 186.272,313.406 188.913 C 312.714 189.900,309.997 189.683,308.734 188.540 C 307.234 187.183,300.796 187.261,299.405 188.652 C 298.506 189.551,295.866 189.564,294.883 188.675 C 294.054 187.925,292.065 187.558,290.400 187.849 M235.722 189.329 C 237.130 189.840,238.595 190.515,238.979 190.829 C 240.729 192.262,242.440 194.287,242.672 195.200 C 242.812 195.750,243.213 196.642,243.563 197.182 C 244.113 198.029,244.200 199.962,244.200 211.267 C 244.200 226.679,244.454 225.800,240.000 225.800 C 235.611 225.800,235.836 226.470,235.600 212.676 C 235.374 199.456,235.435 199.707,231.939 197.721 C 229.881 196.552,228.889 196.563,226.600 197.779 C 223.034 199.676,222.800 200.622,222.800 213.167 C 222.800 226.051,222.816 226.000,218.753 226.000 C 216.749 226.000,216.205 225.841,215.382 225.018 L 214.400 224.036 214.400 207.280 C 214.400 187.903,214.120 189.187,218.412 188.877 C 220.983 188.691,222.800 189.429,222.800 190.658 C 222.800 191.118,222.940 191.185,223.300 190.895 C 226.009 188.710,231.954 187.961,235.722 189.329 M307.829 189.065 C 312.018 190.480,312.579 191.902,310.100 194.824 C 309.275 195.797,308.335 196.909,308.011 197.296 C 307.284 198.165,304.859 198.232,303.776 197.413 C 302.627 196.543,301.343 196.672,299.123 197.881 C 295.873 199.650,295.854 199.730,295.612 212.936 C 295.364 226.421,295.507 226.000,291.185 226.000 C 287.022 226.000,287.199 226.835,287.206 207.246 C 287.209 198.091,287.344 190.402,287.506 190.160 C 288.532 188.624,292.177 188.352,294.569 189.635 C 296.246 190.533,296.736 190.500,299.800 189.275 C 302.297 188.278,305.265 188.200,307.829 189.065 M109.883 189.846 C 110.286 190.397,110.400 194.241,110.400 207.295 L 110.400 224.036 109.373 225.063 C 108.052 226.385,103.637 226.331,102.616 224.981 C 101.809 223.914,101.700 190.939,102.500 189.910 C 103.527 188.591,108.931 188.544,109.883 189.846 M205.594 189.794 C 206.378 190.504,206.400 190.989,206.400 207.280 L 206.400 224.036 205.373 225.063 C 204.116 226.321,199.752 226.323,198.495 225.067 C 197.499 224.071,197.204 191.664,198.177 190.179 C 199.186 188.639,204.039 188.387,205.594 189.794 M320.589 189.370 C 321.695 189.832,322.038 190.266,322.405 191.670 C 322.654 192.621,323.189 194.120,323.594 195.000 C 323.999 195.880,324.452 197.230,324.600 198.000 C 324.748 198.770,325.202 200.120,325.609 201.000 C 326.016 201.880,326.473 203.320,326.626 204.200 C 326.779 205.080,327.077 206.018,327.289 206.285 C 327.500 206.552,327.979 207.801,328.354 209.062 L 329.034 211.354 330.081 209.567 C 330.657 208.585,331.407 206.795,331.749 205.590 C 333.872 198.102,336.719 190.628,337.804 189.695 C 340.371 187.487,347.034 189.322,345.445 191.800 C 345.162 192.240,344.710 193.500,344.440 194.600 C 344.169 195.700,343.719 196.960,343.440 197.400 C 343.160 197.840,342.710 199.100,342.440 200.200 C 342.169 201.300,341.719 202.560,341.440 203.000 C 341.160 203.440,340.710 204.700,340.440 205.800 C 340.169 206.900,339.719 208.160,339.440 208.600 C 339.160 209.040,338.710 210.300,338.440 211.400 C 338.169 212.500,337.719 213.760,337.440 214.200 C 337.160 214.640,336.710 215.900,336.440 217.000 C 336.169 218.100,335.719 219.360,335.440 219.800 C 335.160 220.240,334.710 221.500,334.440 222.600 C 334.169 223.700,333.719 224.960,333.440 225.400 C 333.160 225.840,332.710 227.100,332.440 228.200 C 332.169 229.300,331.724 230.560,331.451 231.000 C 331.178 231.440,330.741 232.538,330.479 233.440 C 329.968 235.205,326.816 238.800,325.780 238.800 C 325.446 238.800,324.773 239.055,324.286 239.368 C 320.589 241.737,317.200 240.143,317.200 236.035 C 317.200 233.214,317.873 232.187,319.937 231.856 C 322.948 231.375,326.565 224.401,324.897 222.294 C 324.682 222.023,324.194 220.810,323.812 219.600 C 323.431 218.390,322.777 216.668,322.360 215.774 C 321.942 214.879,321.600 213.928,321.600 213.661 C 321.600 213.393,321.305 212.505,320.944 211.687 C 320.220 210.047,318.884 206.489,317.832 203.400 C 317.457 202.300,316.967 201.064,316.743 200.654 C 316.373 199.977,315.288 196.969,313.809 192.521 C 312.727 189.266,316.331 187.590,320.589 189.370 M129.000 197.993 C 126.199 199.580,124.912 207.326,126.441 213.397 C 127.697 218.384,135.902 218.825,137.683 214.000 C 138.414 212.021,138.383 202.235,137.641 200.474 C 136.321 197.346,132.220 196.169,129.000 197.993 M135.305 198.631 C 136.997 199.324,137.397 200.838,137.513 207.000 C 137.639 213.712,137.441 214.467,135.236 215.641 C 134.486 216.041,133.685 216.555,133.456 216.784 C 132.917 217.323,130.800 217.325,130.800 216.787 C 130.800 216.561,130.485 216.264,130.100 216.128 C 129.715 215.993,128.815 215.449,128.100 214.920 L 126.800 213.959 126.800 207.398 L 126.800 200.836 127.872 199.764 C 129.499 198.138,132.850 197.627,135.305 198.631 M68.655 204.601 C 68.329 205.450,68.330 213.725,68.657 215.700 L 68.905 217.200 75.159 217.200 C 83.700 217.200,85.977 216.001,86.641 211.151 C 86.935 209.007,85.670 205.927,84.062 204.872 C 82.513 203.855,69.032 203.619,68.655 204.601 M164.655 204.601 C 164.326 205.457,164.323 214.313,164.650 215.950 L 164.900 217.200 171.063 217.200 C 178.549 217.200,180.471 216.547,181.825 213.544 C 183.206 210.481,182.373 206.388,180.059 204.870 C 178.512 203.855,165.031 203.620,164.655 204.601 M84.481 206.148 C 85.864 207.595,86.080 213.297,84.800 214.567 C 83.101 216.254,72.559 217.123,69.980 215.790 L 68.800 215.179 68.800 210.016 L 68.800 204.853 69.900 204.727 C 70.505 204.657,73.765 204.667,77.144 204.750 L 83.288 204.900 84.481 206.148 M180.253 206.228 C 181.513 207.565,181.600 207.834,181.600 210.406 C 181.600 215.108,179.329 216.381,170.919 216.394 C 164.645 216.403,164.800 216.562,164.800 210.136 L 164.800 204.800 171.853 204.800 L 178.906 204.800 180.253 206.228 M258.872 211.936 C 254.723 215.640,262.142 219.823,268.520 217.375 C 269.959 216.823,270.906 213.385,270.157 211.433 C 269.665 210.151,269.385 210.866,269.392 213.382 C 269.403 216.852,268.965 217.170,264.158 217.187 C 255.447 217.218,256.373 211.866,265.200 211.169 L 268.200 210.932 264.172 210.866 C 260.270 210.802,260.104 210.835,258.872 211.936 " stroke="none" fill="#3a9cec" fill-rule="evenodd"></path></g></svg>