<?xml version="1.0" encoding="UTF-8" standalone="no"?>
<svg
   xmlns:dc="http://purl.org/dc/elements/1.1/"
   xmlns:cc="http://creativecommons.org/ns#"
   xmlns:rdf="http://www.w3.org/1999/02/22-rdf-syntax-ns#"
   xmlns:svg="http://www.w3.org/2000/svg"
   xmlns="http://www.w3.org/2000/svg"
   viewBox="0 0 1122.52 793.70135"
   height="793.70135"
   width="1122.52"
   xml:space="preserve"
   id="svg2"
   version="1.1"><metadata
     id="metadata8"><rdf:RDF><cc:Work
         rdf:about=""><dc:format>image/svg+xml</dc:format><dc:type
           rdf:resource="http://purl.org/dc/dcmitype/StillImage" /></cc:Work></rdf:RDF></metadata><defs
     id="defs6"><clipPath
       id="clipPath18"
       clipPathUnits="userSpaceOnUse"><path
         id="path16"
         d="m 657.512,538.99 c -7.916,-58.929 -95.868,-92.35 -95.868,-92.35 v 0 C 440.27,383.314 357.596,396.508 357.596,396.508 v 0 c -21.109,2.638 -66.843,-4.399 -66.843,-4.399 v 0 C 120.128,350.771 81.426,254.904 81.426,254.904 v 0 C -6.527,55.252 150.908,26.228 150.908,26.228 v 0 c 222.518,-39.579 308.711,168.868 308.711,168.868 v 0 c 16.711,38.696 75.64,130.17 75.64,130.17 v 0 c 34.301,53.652 136.325,104.662 136.325,104.662 v 0 c 21.109,21.986 64.206,9.675 64.206,9.675 v 0 c 12.313,-11.432 37.818,1.761 37.818,1.761 v 0 c 28.143,43.095 -21.987,48.375 -21.987,48.375 v 0 c -28.145,-1.761 -20.23,11.431 -20.23,11.431 v 0 c 20.227,36.94 -19.348,72.122 -19.348,72.122 v 0 c -7.798,9.129 -14.771,12.706 -20.915,12.705 v 0 C 668.86,585.993 657.512,538.99 657.512,538.99" /></clipPath><clipPath
       id="clipPath30"
       clipPathUnits="userSpaceOnUse"><path
         id="path28"
         d="M 0,595.276 H 841.89 V 0 H 0 Z" /></clipPath></defs><g
     transform="matrix(1.3333333,0,0,-1.3333333,0,793.70133)"
     id="g10"><g
       id="g12"><g
         clip-path="url(#clipPath18)"
         id="g14"><g
           transform="translate(557.2461,474.7842)"
           id="g20"><path
             id="path22"
             style="fill:#ba763b;fill-opacity:1;fill-rule:nonzero;stroke:none"
             d="m 0,0 c 0,0 8.797,-51.015 -11.433,-87.073 0,0 61.568,5.279 75.639,-12.312 l -115.218,-150.398 -68.602,-129.29 -139.844,-84.434 -166.23,-5.277 -105.542,73.88 2.638,134.566 92.35,126.651 176.784,73.88 z" /></g></g></g><g
       id="g24"><g
         clip-path="url(#clipPath30)"
         id="g26"><g
           transform="translate(671.5889,429.9282)"
           id="g32"><path
             id="path34"
             style="fill:none;stroke:#373535;stroke-width:1;stroke-linecap:butt;stroke-linejoin:miter;stroke-miterlimit:4;stroke-dasharray:none;stroke-opacity:1"
             d="m 0,0 c 0,0 -102.025,-51.01 -136.327,-104.662 0,0 -58.931,-91.474 -75.641,-130.171 0,0 -86.194,-208.446 -308.711,-168.868 0,0 -157.433,29.025 -69.482,228.677 0,0 38.702,95.867 209.328,137.205 0,0 45.735,7.037 66.843,4.399 0,0 82.675,-13.193 204.049,50.132 0,0 87.95,33.423 95.866,92.35 0,0 18.47,76.519 54.532,34.301 0,0 39.575,-35.18 19.348,-72.12 0,0 -7.916,-13.193 20.231,-11.435 0,0 50.129,-5.277 21.985,-48.373 0,0 -25.502,-13.193 -37.817,-1.76 C 64.204,9.675 21.108,21.986 0,0 Z" /></g><g
           transform="translate(717.3203,460.7139)"
           id="g36"><path
             id="path38"
             style="fill:#373535;fill-opacity:1;fill-rule:nonzero;stroke:none"
             d="M 0,0 C 0,0 44.858,21.988 51.013,2.639 51.013,2.639 27.264,10.554 0,0" /></g><g
           transform="translate(271.4023,355.1694)"
           id="g40"><path
             id="path42"
             style="fill:#ffffff;fill-opacity:1;fill-rule:nonzero;stroke:none"
             d="m 0,0 c 0,0 -126.649,-88.833 -136.326,-174.145 0,0 -10.554,-81.796 1.759,-100.266 0,0 -60.685,69.484 -25.506,153.917 0,0 45.736,80.034 160.073,120.494" /></g></g></g></g></svg>