<svg height="512pt" viewBox="0 -60 512.001 512" width="512pt" xmlns="http://www.w3.org/2000/svg"><path d="m388.847656 39.503906c.554688.308594.757813 1.011719.441406 1.570313l-19.75 35.125 25.71875 14.460937 19.75-35.125c.316407-.558594 1.019532-.75 1.574219-.4375.003907.003906.007813.003906.011719.007813 10.4375 5.871093 23.828125 1.691406 29.195312-9.390625 4.660157-9.621094 1.324219-21.390625-7.636718-26.984375-5.371094-3.351563-11.632813-3.929688-17.210938-2.1875-.613281.191406-1.257812-.171875-1.414062-.792969-1.410156-5.671875-5.15625-10.722656-10.8125-13.570312-9.429688-4.753907-21.222656-1.488282-27.023438 7.492187-6.679687 10.34375-3.292968 23.957031 7.148438 29.824219.003906.003906.003906.003906.007812.007812zm0 0" fill="#ffd782"/><path d="m369.539062 76.199219 18.570313 10.441406 19.515625-34.703125c.316406-.5625.109375-1.261719-.441406-1.574219-.003906-.003906-.007813-.003906-.011719-.007812-18.621094-10.46875-11.082031-39.253907 10.445313-39.488281-1.941407-3.609376-4.941407-6.695313-8.902344-8.691407-9.429688-4.75-21.222656-1.484375-27.023438 7.496094-6.679687 10.34375-3.292968 23.953125 7.148438 29.824219 0 .003906.003906.003906.007812.007812.554688.308594.757813 1.011719.441406 1.570313zm0 0" fill="#fdbd40"/><path d="m388.773438 130.765625-48.660157-29.453125c-19.347656-7.601562-40.390625-11.695312-62.34375-11.492188-58.566406.542969-109.996093 31.210938-139.804687 77.394532-4.195313 6.496094-11.367188 10.277344-19.050782 10.261718-.039062 0-.082031 0-.125 0-34.261718 0-62.292968 28.285157-62.292968 62.851563v16.230469c0 17.746094 7.398437 33.824218 19.226562 45.28125h367.070313c3.429687-13.664063 5.230469-27.988282 5.160156-42.746094-.242187-51.257812-23.222656-97.261719-59.179687-128.328125zm0 0" fill="#d3843d"/><path d="m92.695312 240.328125c0-34.570313 28.035157-62.851563 62.296876-62.851563h.125c7.683593.015626 14.855468-3.769531 19.046874-10.265624 26.957032-41.761719 71.597657-70.832032 123.207032-76.414063-6.4375-.703125-12.976563-1.039063-19.601563-.976563-58.570312.542969-110 31.210938-139.808593 77.394532-4.191407 6.496094-11.363282 10.277344-19.046876 10.261718-.042968 0-.085937 0-.128906 0-34.261718 0-62.292968 28.285157-62.292968 62.851563v16.230469c0 17.746094 7.402343 33.824218 19.226562 45.28125h36.207031c-11.828125-11.457032-19.230469-27.535156-19.230469-45.28125zm0 0" fill="#c16a33"/><g fill="#d7f7ff"><path d="m170.324219 58.871094c-4.285157 0-7.757813-3.472656-7.757813-7.757813v-27.601562c0-4.285157 3.472656-7.757813 7.757813-7.757813 4.285156 0 7.757812 3.472656 7.757812 7.757813v27.601562c0 4.285157-3.472656 7.757813-7.757812 7.757813zm0 0"/><path d="m215.152344 58.871094c-4.285156 0-7.757813-3.472656-7.757813-7.757813v-27.601562c0-4.285157 3.472657-7.757813 7.757813-7.757813s7.757812 3.472656 7.757812 7.757813v27.601562c0 4.285157-3.472656 7.757813-7.757812 7.757813zm0 0"/><path d="m259.984375 58.871094c-4.285156 0-7.757813-3.472656-7.757813-7.757813v-27.601562c0-4.285157 3.472657-7.757813 7.757813-7.757813s7.757813 3.472656 7.757813 7.757813v27.601562c0 4.285157-3.472657 7.757813-7.757813 7.757813zm0 0"/><path d="m304.816406 58.871094c-4.285156 0-7.757812-3.472656-7.757812-7.757813v-27.601562c0-4.285157 3.472656-7.757813 7.757812-7.757813s7.757813 3.472656 7.757813 7.757813v27.601562c0 4.285157-3.476563 7.757813-7.757813 7.757813zm0 0"/></g><path d="m390.578125 154.5625c-4.023437-10.535156-3.800781-22.21875 1.050781-32.402344l10.03125-21.054687c1.695313-3.558594.34375-7.824219-3.09375-9.757813l-31.335937-17.621094c-3.4375-1.929687-7.78125-.871093-9.941407 2.425782l-12.785156 19.515625c-6.144531 9.378906-15.917968 15.699219-26.949218 17.6875-59.089844 10.660156-73.871094 88.785156-23.253907 120.398437 32.019531 20 73.882813 9.050782 92.179688-23.488281 9.964843-17.722656 10.828125-38.085937 4.097656-55.703125zm0 0" fill="#c16a33"/><path d="m330.898438 233.753906c-50.558594-31.578125-35.875-109.730468 23.257812-120.394531 11.03125-1.992187 20.804688-8.3125 26.949219-17.6875l6.765625-10.335937-20.640625-11.609376c-3.433594-1.929687-7.78125-.871093-9.941407 2.425782l-12.785156 19.519531c-6.140625 9.375-15.914062 15.695313-26.949218 17.6875-59.089844 10.65625-73.867188 88.785156-23.253907 120.394531 16.628907 10.386719 35.902344 12.40625 53.160157 7.414063-5.6875-1.660157-11.261719-4.105469-16.5625-7.414063zm0 0" fill="#af5028"/><path d="m38.699219 353.582031v3.179688c0 19.855469 14.972656 36.097656 33.273437 36.097656h368.054688c18.296875 0 33.269531-16.242187 33.269531-36.097656v-3.179688zm0 0" fill="#d7f7ff"/><path d="m74.90625 356.761719v-3.179688h-36.207031v3.179688c0 19.855469 14.972656 36.097656 33.273437 36.097656h36.203125c-18.296875 0-33.269531-16.242187-33.269531-36.097656zm0 0" fill="#b7e9f9"/><path d="m491.382812 299.964844h-470.765624c-11.339844 0-20.617188 9.277344-20.617188 20.617187v15.460938c0 11.339843 9.277344 20.617187 20.617188 20.617187h470.765624c11.339844 0 20.617188-9.277344 20.617188-20.617187v-15.460938c0-11.339843-9.277344-20.617187-20.617188-20.617187zm0 0" fill="#b7e9f9"/><path d="m491.382812 321.878906h-470.765624c-7.851563 0-14.710938-4.453125-18.191407-10.957031-1.542969 2.886719-2.425781 6.171875-2.425781 9.660156v15.460938c0 11.339843 9.277344 20.617187 20.617188 20.617187h470.765624c11.339844 0 20.617188-9.277344 20.617188-20.617187v-15.460938c0-3.488281-.882812-6.773437-2.425781-9.660156-3.480469 6.503906-10.339844 10.957031-18.191407 10.957031zm0 0" fill="#87cee9"/></svg>