<?xml version="1.0" encoding="utf-8"?>

<!DOCTYPE svg PUBLIC "-//W3C//DTD SVG 1.1//EN" "http://www.w3.org/Graphics/SVG/1.1/DTD/svg11.dtd">
<svg version="1.1" id="Layer_1" xmlns="http://www.w3.org/2000/svg" xmlns:xlink="http://www.w3.org/1999/xlink" x="0px" y="0px"
	 viewBox="0 0 1760.377 1632.293" enable-background="new 0 0 1760.377 1632.293" xml:space="preserve">
<g>
	<path d="M1529.666,1098.081c7.535,6.139,17.15,9.164,25.535,13.887c33.059,18.621,66.633,38.821,102.423,51.882
		c5.75,2.098,9.683,5.337,15.03,7.993c30.428,15.116,28.553,13.73,45.959-3.618c14.078-14.029,22.106-30.78,24.175-50.699
		c1.42-13.668-11.533-18.391-20.984-24.859c-24.097-16.491-49.949-37.981-98.143-62.784c-12.915-6.646-31.229-26.067-57.865-26.76
		c-11.946-0.311-13.146-2.507-31.359-12.729c-172.261-96.682-165.214-91.447-165.525-97.066
		c-3.032-54.812-32.975-290.215-38.781-318.629c-6.581-32.211-9.635-65.449-12.498-98.161
		c-9.085-103.823-0.284-124.039-19.633-159.466c-43.249-79.186-96.739-45.149-188.856-102.367c-1-0.621-63.66-42.654-123.728-69.715
		c-8.58-3.865-16.585-9.128-25.806-11.495c-67.704-17.377-140.041-69.251-144.354-71.434
		c-37.441-18.956-40.738-35.732-62.352-34.871c-2.099,0.084-3.962-0.903-5.717-1.982c-16.944-10.417-35.659-10.176-54.152-7.497
		c-26.029,3.77-52.858,30.253-72.874,41.862c-30.634,17.767-11.799,7.479-66.578,20.078c-14.748,3.392-42.281,6.684-84.299,24.403
		c-11.591,4.888-13.79,1.337-49.656,21.423c-27.883,15.616-24.194,8.954-89.638,44.657c-42.574,23.227-37.895,26.133-50.52,29.9
		c-17.801,5.312-60.316,23.121-68.774,40.073c-3.51,7.036-6.416-0.048-36.255-15.597c-39.549-20.609-60.636-19.75-142.308-48.188
		c-6.575-2.29-16.172-2.81-14.447,7.057c1.906,10.895,115.092,111.704,116.094,112.278c41.858,23.968,42.859,21.703,36.126,28.707
		c-10.69,11.12-10.686,25.59-17.529,38.605c-8.003,15.222-11.96,31.663-10.525,48.936c0.943,11.344,4.127,23.255,21.433,37.784
		c28.164,23.645,46.764,9.464,56.948,20.478c4.577,4.949,10,13.751,5.107,20.192c-5.491,7.227-10.604,14.772-15.763,22.234
		c-10.788,15.602-23.7,31.659-29.122,50.061c-21.143,71.753,57.728,96.033,98.977,76.339c3.389-1.618,5.801-0.85,7.788,2.238
		c8.487,13.19,11.901,11.997,15.089,23.664c5.686,20.81,28.893,40.031,40.606,50.751c24.11,24.11,89.13,101.661,161.244,166.186
		c27.251,24.383,40.891,34.818,63.751,64.682c44.094,57.604,50.554,52.563,65.316,75.81
		c32.065,50.494,84.437,115.431,132.441,150.958c28.639,21.194,38.257,33.274,63.326,46.628
		c40.446,21.546,86.327,52.679,94.614,61.711c10.355,11.286,22.113,21.603,33.084,32.324c19.274,18.834,16.338,14.97,23.918,28.025
		c36.792,63.37,85.133,105.829,125.761,215.864c5.483,14.85,13.822,28.384,19.72,43.066c2.066,5.143,3.558,10.685,7.007,15.246
		h10.724c-74.329-159.996-24.161-86.811-140.702-256.533c-36.813-53.61-21.311-35.787-64.08-76.506
		c-69.86-66.51-96.227-46.433-212.485-157.713c-21.675-20.746-66.746-77.33-82.967-103.91
		c-12.915-21.163-29.892-32.747-46.682-53.479c-69.151-85.388-55.474-63.2-103.239-109.35
		c-5.266-5.088-92.284-91.739-104.366-106.176c-12.43-14.853-23.977-29.836-38.333-42.985c-1.066-0.977-2.203-2.194-1.447-3.952
		c5.758-2.144,10.711-5.177,13.494-11.014c-3.693-2.318-6.151,3.403-9.964,3.291c-7.443-0.219-14.841-0.711-20.745-6.151
		c-9.891-9.113-18.244-19.264-22.065-32.51c-2.859-9.911-8.104-11.464-2.131-16.284c4.209-3.396,13.618-15.058,10.594-19.229
		c-2.728,0.813-3.661,3.291-5.075,5.302c-10.702,15.218-11.245,16.804-15.422,10.302c-14.792-23.02-16.355-45.677-20.997-67.673
		c-5.183-24.555-10.811-33.115-2.445-47.249c16.581-28.012,13.257-34.516,19.767-53.166c10.38-29.737-1.558-47.406-33.004-94.559
		c-5.916-8.871-13.791-14.927-23.223-19.259c-36.143-16.601-52.689-8.929-62.947,4.141c-6.641,8.461-8.066,4.352-8.128,2.958
		c-0.444-9.885-1.382-19.929,5.609-28.403c12.477-14.678,27.562-30.052,48.559-28.366c16.027,1.287,106.228,32.797,135.052,53.566
		c60.803,43.811,73.8,75.944,134.689,140.425c5.871,6.217,8.923,12.409,3.86,20.44c-1.294,2.052,0.421,4.912,3.414,2.628
		c1.433-1.094,2.748-2.356,4.787-1.467c6.312,2.753,13.1,4.743,18.86,8.368c27.531,17.325,36.57,46.329,55.802,70.663
		c71.88,90.951,166.935,87.716,185.054,91.182c4.067,0.778,12.681,3.07,16.699,0.894c7.741-4.193-5.161-5.806-8.728-6.179
		c-21.123-2.213-42.463-5.548-63.683-6.474l0.067-0.041c0.027,0.082,0.053-0.029,0.054-0.034c0,0-0.063,0-0.063,0
		c-0.515,0-1.03,0-1.545,0c0.515,0,1.03,0,1.545,0c-0.028-0.133-0.055-0.516-0.054-1.486c-0.496,0.001-0.993,0.002-1.49,0.001
		c0.159,0,1.453-0.001,1.611-0.002l-0.122-0.072c50.966-38.316,11.083-55.735,61.248-26.435c1.251,0.731,2.81,1.425,2.551,3.853
		c-11.062,4.733-16.163,14.486-23.449,6.328c-1.427-1.598-5.867,0.775-4.827,3.649c0.755,2.086,14.23,4.191,24.491-2.764
		c11.612-7.871,19.763-0.707,23.659,1.524c640.413,366.814,597.317,338.821,599.245,350.146
		c0.174,1.023,11.914,110.281,29.255,153.521c58.261,145.276,151.427,237.164,185.497,286.33
		c63.073,91.019,67.61,67.059,108.824,159.905h9.191c1.378-5.214-1.223-5.623-24.234-52.33
		c-10.483-21.279-58.657-74.091-69.966-90.446c-95.214-137.7-44.518-41.018-144.835-200.083
		c-12.692-20.125-28.144-40.746-53.922-103.458c-16.102-39.171-29.405-133.677-27.16-146.446
		C1406.671,1024.623,1507.063,1079.666,1529.666,1098.081z M227.002,504.955c7.072-8.935,7.786-16.699,13.127-9.724
		c10.659,13.919,0.314,19.864-4.062,31.726c-4.405,11.94-12.757,6.304-35.316,18.573
		C208.498,531.05,217.046,517.535,227.002,504.955z M282.901,618.343c2.359,5.96,1.881,7.212-3.706,10.357
		c-25.926,14.596-94.628,5.061-91.85-41.869c0.303-5.124-1.639-22.03,6.628-28.784c8.901-7.272,17.731-14.438,29.686-16.504
		c20.542-3.549,20.384-32.847,26.756-23.94C276.22,553.676,271.568,589.712,282.901,618.343z M174.903,373.807
		c0.964-11.344,13.952-21.21,25.044-20.982c46.863,0.964,64.581,29.72,85.464,71.682c11.504,23.103,4.694,49.961-3.756,72.983
		c-3.408,9.286-7.375,20.238-13.501,28.121c-1.83,2.355-3.668,2.293-5.669,0.104c-4.17-4.56-7.789-9.547-9.907-15.33
		c-10.826-29.553-30.072-51.069-37.397-63.601C194.746,411.824,172.341,404.03,174.903,373.807z M213.367,453.818
		c-17.488,2.823-31.801-0.208-44.054-11.309c-17.215-15.597-18.449-23.77-18.524-31.734c-0.074-7.958,2.757-33.069,6.925-38.739
		c3.979-5.414,6.492,1.287,6.708,2.288C171.281,406.203,191.99,417.573,213.367,453.818z M1732.181,1111.483
		c5.243,27.365-25.812,57.953-32.239,58.736c1.943-18.012,11.633-32.834,20.21-48.024
		C1722.671,1117.734,1726.415,1113.602,1732.181,1111.483z M1699.437,1090.528c8.78,7.443,24.379,13.478,25.3,17.724
		c-0.281,1.745-1.368,2.824-2.353,4.003c-11.765,14.076-19.781,30.18-25.439,47.515c-3.452,10.577-3.902,10.857-14.015,6.506
		c-7.29-3.136-14.056-7.166-20.549-11.713c-2.573-1.802-4.152-3.796-2.872-7.016c16.104-40.5,16.183-37.124,35.239-56.113
		C1696.15,1090.037,1697.748,1089.096,1699.437,1090.528z M1589.531,1020.688c5.946,3.367,13.914,9.514,7.901,16.649
		c-36.834,43.696-30.503,72.383-25.549,59.301c5.725-15.12,9.958-37.463,33.253-61.174c4.856-4.943,3.948-4.719,13.647,6.217
		c5.834,2.456,10.496,6.578,15.188,10.658c2.898,1.006,5.928,0.269,8.917,0.653c8.223,1.057,20.846,11.711,25.525,12.792
		c3.717,0.858,3.951,4.65,3.894,8.019c-8.851,0.246-16.292,11.943-20.816,18.188c-14.615,20.178-19.086,29.738-25.689,42.5
		c0.654,2.026,1.878,3.865,3.495,5.25c15.109-37.287,30.207-49.863,43.011-65.82c2.377-0.553,4.873-2.116,6.506,1.383
		c1.385,2.967,0.08,4.556-2.166,6.395c-7.811,6.396-12.127,15.658-18.572,23.201c-8.497,9.944-13.386,19.828-13.559,22.64
		c-0.04,0.642,0.813,3.166,0.651,3.399c34.35-48.349,33.516-48.135,37.342-49.99c5.476-2.654,11.16,1.937,7.559,7.914
		c-2.312,3.839-16.562,12.392-28.972,40.824c-2.08,4.767-3.181,13.568-7.057,16.963c-6.133,5.371-15.801-0.894-22.511-4.683
		c-0.435-0.146-66.581-37.148-92.938-53.811c-4.24-2.681-9.042-4.964-11.338-9.656c-8.502-17.375,7.393-57.133,37.719-65.774
		C1572.336,1010.627,1583.248,1017.13,1589.531,1020.688z M315.333,190.06c33.844-23.196,71.412-36.382,108.299-56.474
		c43.822-23.87,107.756-42.498,136.627-44.39c-1.597,3.775-4.092,5.311-6.326,6.729c-14.18,9.005-27.971,18.565-42.923,26.422
		c-43.384,22.8-37.766,29.754-71.581,40.192c-22.565,6.966-39.611-1.41-55.201,13.045
		C370.123,188.662,300.223,200.417,315.333,190.06z M229.413,234.024c9.835-6.325,19.523-13.014,30.858-16.568
		c5.115-1.604,9.6-4.563,14.65-6.436c26.418-9.795,45.727-10.683,67.582-15.015c3.555-0.705,10.732-2.792,12.34,0.143
		c3.208,5.856-19.42,26.709-34.643,32.549c-38.705,14.847-65.738,16.575-77.75,15.405c-7.619-0.742-6.085,1.458-21.545,0.24
		C222.417,239,225.911,236.276,229.413,234.024z M25.043,180.916c4.857,0.44,32.122,8.811,34,12.667
		c0.467,0.959-11.553,12.074-12.667,12.667C45.935,206.484,28.038,188.432,25.043,180.916z M70.379,224.585
		c-18.517-16.996-19.318-17.261-15.498-21.668c8.636-9.961-2.86-10.684,92.269,19.697c17.253,5.51,14.529,7.184,8.429,12.626
		c-14.73,13.142-16.938,27.167-21.548,43.343C128.047,278.48,92.183,244.597,70.379,224.585z M214.294,300.103
		c-18.537,3.178-21.302,15.197-33.094,8.074c-35.774-21.612-42.072-21.349-39.603-29.337c2.276-13.422,6.414-27.468,17.843-38.141
		c8.859-8.273,6.734-6.915,42.677,13.396c4.714,2.664,7.374,6.044,7.286,12.119C209.09,287.849,228.88,297.601,214.294,300.103z
		 M312.722,334.136c-1.001-0.418-68.868-29.167-76.146-29.724c-2.693-0.206-16.613-12.923-21.372-33.162
		c-1.108-4.714-1.305-19.307,8.592-19.869c18.502-1.051,51.814,0.854,99.757-19.032c7.381-3.062,14.155-7.018,19.734-12.857
		c39.008-40.825,17.758-21.945,47.612-40.98c7.732-4.93,15.778-3.582,23.897-4.005c5.638-0.294,6.385-0.17,4.613,5.083
		c-2.937,8.703-2.146,18.3-6.714,26.548c-1.426,2.574,1.167,3.96,3.058,2.147c8.566-8.21,1.64-32.52,18.714-37.737
		c4.558-1.393,8.669-4.285,14.96-4.107c-5.491,10.937-11.102,21.216-14.724,32.319c2.497,0.849,3.147-0.358,3.959-1.279
		c9.362-10.614,1.315-13.777,26.31-37.695c24.556-23.499,50.65-32.346,83.376-55.052c24.297-16.858,25.76-9.186,69.665-32.764
		c2.185-1.174,4.129-3.1,7.343-2.637c0.637,6.489-3.705,14.148,4.625,20.405c0.792-14.889-0.816-23.126,10.594-32.031
		c7.654-5.974,44.218-32.467,51.257-29.13c0.145,3.364-2.427,5.377-4.192,7.666c-7.519,9.753-23.652,36.192-19.373,40.624
		c3.607-1.926,4.775-5.539,6.16-9.009c4.48-11.221,10.546-21.481,18.19-30.871c11.852-14.559,32.877-12.403,44.036-6.416
		c5.003,2.684,5.191,3.144,3.544,8.376c-2.453,7.795-4.906,15.627-10.962,21.619c-3.108,3.074-0.498,5.978,1.504,3.987
		c6.291-6.256,7.743-7.87,11.694-17.64c4.383-10.838,19.425-14.093,28.008-2.546c6.331,8.517,5.28,25.772-2.037,33.39
		c-14.921,15.537-23.324,15.903-26.599,22.546c2.555,1.988,4.258,0.341,5.783-0.672c20.292-13.474,35.473-24.667,32.228-45.562
		c2.016-1.525,3.653-0.073,4.867,0.843c7.583,5.724,16.164,9.707,24.4,14.286c22.062,12.265,37.935,28.578,73.507,43.785
		c44.908,19.199,101.539,74.363,127.034,97.182c49.979,44.734,28.088,33.515,81.529,63.618
		c69.433,39.111,133.356,69.567,128.87,144.743c-0.339,5.684,0.729,8.678,3.036,8.04c5.889-1.629,13.105-58.81-47.366-105.129
		c-37.103-28.42-36.245-27.276-106.167-64.912c-20.523-11.047-55.773-52.185-94.366-83.507c-5.124-4.158-39.102-34.103-42.59-36.607
		c59.578,15.151,144.511,67.628,157.931,77.046c46.123,32.369,91.606,43.618,106.073,47.94c23.218,6.937,49.906,2.836,83.842,46.049
		c33.455,42.601,15.591,77.317,25.899,159.272c34.964,277.989,63.179,432.914,45.583,426.202
		c-0.997-0.38-501.942-281.49-509.857-287.78c1.288-1.285,2.829-2.984-0.088-0.069l0.079,0.078c-2.308-0.366-4.363-1.368-6.374-2.5
		c-107.983-60.777-106.832-58.151-106.15-65.171c1.183-12.183-0.271-24.445,1.45-36.649c1.12-7.936,10.119-56.453,18.02-55.163
		c-1.913,16.011-4.695,37.009,2.423,52.326c0.914,1.968,4.846,9.213,6.442,4.076c0.51-1.642-2.769-7.156-3.318-8.957
		c-4.961-16.259-4.692-37.727,5.285-55.473c0.815-1.45-0.5-3.89-2.756-2.403c-2.465,1.624-4,4.375-6.727,5.702
		c5.504-10.515,19.727-21.054,20.823-22.476c5.088-6.605-4.541-8.001-5.994-3.973c-14.468,40.082-89.298,34.262-118.089,24.18
		c-50.084-17.539-41.119-15.759-26.524-31.418c11.384-12.215,7.822-21.861,7.114-28.812c4.212,1.334,6.596-1.072,8.698-4.31
		c-0.69-3.017-4.689-0.37-5.339-3.04c-1.284-5.275-0.196-10.625-3.03-13.132c-1.64-1.451-1.692,0.796-1.933,1.921
		c0.004,0.009,0.009,0.018,0.013,0.028c-3.924,5.404,1.759,13.411-6.935,18.164c-4.157,2.272-8.243,4.672-12.913,7.331
		c8.153-13.171,14.185-26.485,20.116-39.816c1.191-2.676,2.674-18.594-2.679-14.483c-2.237,1.717-1.467,6.572-2.112,9.037
		c-3.008,11.488-13.868,18.391-18.662,29.001c-4.872,10.781-2.649,23.387-5.212,34.936c-4.238,19.096-23.097,33.85-42.651,33.369
		c-13.849-0.341-26.554-7.312-38.629-14.102c-114.381-64.316-110.504-61.081-110.292-64.479c0.304-4.867-2.087-1.564,163.045-38.09
		c25.845-5.717,57.382-7.955,76.498-28.612c5.298-5.724,2.745-8.109,28.746,31.633c31.38,47.963,69.962,65.012,90.118,74.334
		c31.639,14.633,39.08,9.825,39.544,22.371c1.387,37.518,24.92,79.442,34.501,89.084c5.266,5.299,14.368,10.716,3.909,16.502
		c-59.405,32.862-51.17,45.695-42.787,36.292c19.232-21.568,59.728-42.587,83.464-45.117c34.684-3.697,26.821-9.29,38.547-5.746
		c52.795,15.958,62.273-2.967,45.473-0.84c-13.254,1.678-26.377,1.748-39.151-3.051c-4.779-1.795-4.828-1.65-2.914-6.276
		c2.024-4.892-1.851-4.23-3.219-2.68c-13.27,15.04-25.349,7.938-57.74,19.041c-23.588,8.084-40.717-46.983-47.671-64.853
		c-3.756-9.653-4.56-20.697-6.551-30.911c-0.936-4.803,1.267-7.284,6.194-7.117c7.121,0.242,14.282-0.176,21.356,1.228
		c10.511,2.086,11.033-2.279,7.555-3.979c-6.698-3.274-24.448-4.268-26.982-4.182c-23.736,0.808-77.51-19.931-115.067-55.279
		c-13.797-12.985-22.862-28.884-42.551-58.495c-7.692-11.569-2.677-16.503,2.008-28.181c16.564-41.293,1.161-62.338,0.351-51.601
		c-1.544,20.409,6.841,67.355-39.182,87.571c-18.082,7.942-35.9,10.128-54.771,14.246c-42.937,9.371-79.127,25.157-101.671-21.886
		c-15.683-32.727-15.866-33.236-18.539-31.946c-4.25,2.05,18.281,45.809,31.481,56.693c10.224,8.43,13.43,7.734,12.752,11.149
		C490.885,340.057,378.935,361.779,312.722,334.136z M721.239,533.177c-0.63,0.219-0.953,0.448-1.1,0.365
		c-33.993-19.243-62.143-37.009-73.633-41.486c-2.508-0.977-6.102-2.383-5.628-5.396c0.501-3.182,4.399-2.774,7.064-3.097
		c35.416-4.291,54.213,3.89,59.406,5.49c5.872,1.808,14.755,14.27,14.928,24.754c0.054,3.284-0.597,6.584-0.996,9.869
		C720.891,526.88,722.167,530.154,721.239,533.177z M720.704,488.198c-6.834-10.894-33.776-15.237-51.865-15.198
		c-8.28,0.018-7.468-0.199-9.491-14.528c-0.481-3.411-5.087-3.466-5.36,0.324c-0.257,3.562-1.427,6.979-1.822,10.446
		c-0.327,2.867-1.66,4.111-3.831,5.016c-22.661,9.448-20.632,11.35-25.927,8.363c-64.204-36.219-62.685-34.297-63.703-38.367
		c5.701-2.715,11.383-5.474,17.113-8.131c20.474-9.492,17.672-16.361,26.014-11.655c39.123,22.071,91.629,34.505,120.71,22.769
		c0.017,0.017,0.029,0.03,0.048,0.048c5.851-1.758,11.656-3.682,18.812-4.721c-10.203,34.009-11.178,32.499-11.785,40.056
		c-0.138,1.723-0.85,3.478-1.623,5.059C725.375,493.039,723.854,493.22,720.704,488.198z M606.373,392.771
		c1.94-3.602,5.831-4.987,9.246-6.96c6.348-3.634,7.541-2.911,7.539,4.85c1.27,13.259-26.347,36.146-20.461,15.981
		C603.884,402.574,604.431,396.377,606.373,392.771z M713.511,445.963c0.099,0.211,0.198,0.421,0.297,0.632
		C713.56,446.22,713.55,446.3,713.511,445.963z M721.649,446.807c0.526,0.034,0.481,0.003,0.741,0.274
		C722.143,446.989,721.896,446.898,721.649,446.807z M626.214,360.206c0.092,0.194,0.185,0.389,0.277,0.583
		C626.273,360.429,626.261,360.489,626.214,360.206z M538.62,538.255c-20.173-15.063-10.142-8.405-29.231-17.577
		c-3.366-1.617-5.692-3.998-6.195-8.029c-0.582-4.67-3.326-8.44-5.446-12.924c58.109,32.835,56.304,30.949,55.942,33.958
		c-0.491,4.081-5.529,4.668-8.86,6.323C542.393,541.218,540.485,539.648,538.62,538.255z M727.838,641.824
		c-4.808,9.096-8.835,21.185-19.845,24.411c-15.309,4.486-59.762-4.822-89.941-33.825c-14.761-14.186-30.79-28.53-41.562-46.212
		c-6.72-11.031-12.508-29.279-23.185-37.185c-2.465-1.825-2.008-3.459,0.138-5.54c5.308-5.146,5.665-5.274,11.342-1.094
		c0,0,87.925,47.777,87.928,47.779c22.68,12.382,17.37,12.022,58.177,35.152C729.333,635.765,731.694,634.529,727.838,641.824z
		 M507.446,496.612c-5.433-3.382-7.3,2.778-18.496-10.563c-9.845-11.731-20.416-22.752-31.245-33.592
		c-2.411-2.413-38.079-49.406-93.358-92.297c-10.514-8.158,6.383-10.968,17.743-4.544c0,0,201.888,113.302,1153.952,649.277
		c25.384,14.289-5.019,3.307-16.519,55.766C1514.463,1083.74,1576.591,1101.849,507.446,496.612z"/>
	<path d="M372.276,674.519c11.495-3.778,24.472-19.399,26.013-31.645c-5.289,3.021-5.725,8.203-8.57,11.638
		C377.979,668.689,373.919,668.567,372.276,674.519z"/>
	<path d="M955.126,584.158c-21.747-1.553-100.383-3.978-109.216,17.093c0.517-1.234,30.326-8.186,43.213-9.978
		c33.815-4.702,60.278,2.427,66.622-2.755C957.323,587.229,958.069,584.369,955.126,584.158z"/>
	<path d="M413.081,268.946c5.605,0.168,0.867-4.023,4.504-41.516c0.31-3.192-0.088-9.925-3.318-9.952
		c-4.693-0.039-1.374,11.299-1.243,12.299c0,0,0.089-0.089,0.089-0.088c-2.795,10.635-3.094,21.519-3.069,32.413
		C410.051,264.745,409.608,268.842,413.081,268.946z"/>
	<path d="M775.769,428.838c-0.474-1.403,1.449-4.338-1.674-3.986c-7.11,0.802,2.939,17.301,5.802,35.853
		c0.708,4.585,5.432,15.003,10.002,14.66c1.279-1.533,0.584-2.73,0.032-3.823C783.094,458.004,780.569,443.045,775.769,428.838z"/>
	<path d="M395.623,187.825c-4.028-5.299-11.378,9.914-13.267,16.71c-1.133,4.078,2.372,5.227,3.967,1.278
		c2.293-5.676,4.621-11.3,8.715-15.997C395.473,189.317,395.458,188.427,395.623,187.825z"/>
	<path d="M644.194,123.889c0.815-0.213,1.089-0.9,0.912-2.81c-2.838-4.504-3.599-11.04-7.346-16.281
		c-1.635-2.286-4.614-1.339-3.336,2.113C635.957,111.049,640.272,124.915,644.194,123.889z"/>
	<path d="M672.721,102.451c4.484-6.206-4.885-13.176-3.298,1.733C671.522,104.089,672.131,103.268,672.721,102.451z"/>
	<path d="M843.643,603.544c1.134-1.136,1.422-1.48,1.476-1.578c0.022,0.023,0.05,0.05,0.05,0.05
		c0.018-0.035,0.041-0.067,0.059-0.102c-0.033,0.006-0.065,0.013-0.098,0.019C845.09,601.873,843.531,603.433,843.643,603.544z"/>
	<path d="M1622.914,1121.3c6.157-3.625,3.098-7.448,15.611-26.086c3.136-4.671,6.476-9.205,10.008-13.584
		c3.165-3.924,9.651-8.865,11.309-13.401C1653.495,1063.641,1625.516,1096.654,1622.914,1121.3z"/>
	<path d="M1617.32,1110.403c16.272-29.465,19.987-35.34,29.388-43.625c1.064-0.938,2.203-1.913,2.651-3.258
		c0.703-2.108-1.215-5.54-4.754-1.735C1633.54,1073.681,1618.243,1090.475,1617.32,1110.403z"/>
	<path d="M1556.695,1088.973c3.825-1.075,4.881-3.838,6.081-6.267c22.163-44.867,18.713-40.145,25.14-47.911
		c1.951-2.358,4.055-3.402,3.091-5.492c-4.621-10.015-27.488,40.871-32.737,51.132
		C1557.031,1082.854,1555.911,1085.492,1556.695,1088.973z"/>
	<path d="M1618.78,1041.68c-0.028,0.035-0.055,0.069-0.083,0.103c0.058,0.001,0.117-0.002,0.175,0
		C1618.874,1041.785,1618.78,1041.68,1618.78,1041.68z"/>
	<path d="M1584.964,1097.261c9.609-29.207,22.202-40.94,33.733-55.478c-13.453-0.307-31.939,37.988-37.472,49.532
		c-1.787,3.73-2.584,8.162-1.843,13.021C1583.186,1103.023,1584.025,1100.115,1584.964,1097.261z"/>
	<path d="M1591.964,1116.335c16.914-8.873,13.637-27.453,40.832-58.593c1.417-1.623,2.411-3.182,1.202-5.275
		C1622.528,1055.091,1593.055,1114.011,1591.964,1116.335z"/>
	<path d="M1633.927,1052.326c0.03,0.048,0.043,0.092,0.071,0.14c0.03-0.007,0.061-0.019,0.091-0.025
		C1634.089,1052.441,1633.927,1052.326,1633.927,1052.326z"/>
	<path d="M1546.81,1079.934c2.755-1.464,2.758-4.295,9.479-18.912c14.731-32.033,13.522-23.814,21.495-33.559
		c-0.268-0.693-0.313-1.314-0.642-1.569c-1.214-0.941-2.467-0.433-3.459,0.367c-12.802,10.325-17.284,21.148-28.579,47.956
		C1543.673,1077.614,1543.544,1081.67,1546.81,1079.934z"/>
	<path d="M1575.759,1109.06c0,0,0.089,0.091,0.089,0.091S1575.76,1109.06,1575.759,1109.06z"/>
	<path d="M650.557,462.533c0-0.001-0.078,0.075-0.078,0.075S650.557,462.534,650.557,462.533z"/>
</g>
</svg>
