<?xml version="1.0" encoding="iso-8859-1"?>
<!-- Generator: Adobe Illustrator 21.0.2, SVG Export Plug-In . SVG Version: 6.00 Build 0)  -->
<svg version="1.1" id="Layer_1" xmlns="http://www.w3.org/2000/svg" xmlns:xlink="http://www.w3.org/1999/xlink" x="0px" y="0px"
	 viewBox="0 0 40 40" style="enable-background:new 0 0 40 40;" xml:space="preserve">
<line style="fill:#DCD5F2;stroke:#8B75A1;stroke-miterlimit:10;" x1="7.783" y1="36.402" x2="18.637" y2="22.279"/>
<g>
	<path style="fill:#8BB7F0;" d="M18.081,38.5c-0.587,0-1.104-0.308-1.385-0.822c-0.281-0.516-0.259-1.118,0.059-1.612l3.613-5.596
		l1.584-6.051l3.648,3.328l-2.512,4.754l-3.713,5.323C19.081,38.247,18.597,38.5,18.081,38.5z"/>
	<path style="fill:#4E7AB5;" d="M22.226,25.346l2.752,2.51l-2.301,4.357l-3.71,5.325C18.764,37.827,18.434,38,18.081,38
		c-0.578,0-0.855-0.393-0.947-0.562s-0.273-0.615,0.041-1.1l3.568-5.53l0.087-0.134l0.04-0.155L22.226,25.346 M21.678,23.492
		l-1.774,6.773l-3.568,5.53C15.443,37.178,16.436,39,18.081,39h0c0.68,0,1.316-0.332,1.705-0.89l3.745-5.375l2.692-5.096
		L21.678,23.492L21.678,23.492z"/>
</g>
<g>
	<path style="fill:#8BB7F0;" d="M35.992,24.5c-0.31,0-0.608-0.095-0.863-0.273l-5.422-4.167l-2.032-3.403l1.564-3.856l2.878,5.162
		l4.741,3.798c0.684,0.495,0.842,1.403,0.381,2.082C36.958,24.254,36.492,24.5,35.992,24.5z"/>
	<path style="fill:#4E7AB5;" d="M29.31,13.955l2.322,4.164l0.095,0.171l0.153,0.122l4.704,3.766
		c0.444,0.321,0.549,0.928,0.241,1.381C36.638,23.836,36.326,24,35.992,24c-0.206,0-0.406-0.063-0.541-0.157l-5.363-4.122
		l-1.856-3.107L29.31,13.955 M29.168,11.646L27.118,16.7l2.209,3.698l5.515,4.238C35.192,24.882,35.594,25,35.992,25
		c0.641,0,1.271-0.307,1.66-0.877c0.611-0.897,0.398-2.117-0.481-2.753l-4.666-3.737L29.168,11.646L29.168,11.646z"/>
</g>
<g>
	<circle style="fill:#F5CE85;" cx="29" cy="5" r="3.5"/>
	<path style="fill:#967A44;" d="M29,2c1.654,0,3,1.346,3,3s-1.346,3-3,3s-3-1.346-3-3S27.346,2,29,2 M29,1c-2.209,0-4,1.791-4,4
		s1.791,4,4,4s4-1.791,4-4S31.209,1,29,1L29,1z"/>
</g>
<g>
	<g>
		<path style="fill:#8BB7F0;" d="M30.176,38.5c-0.704,0-1.345-0.442-1.594-1.102l-2.624-6.942l-4.036-5.516
			c-0.421-0.692-0.524-1.575-0.259-2.387l1.63-4.977l-4.976,6.305c-0.304,0.395-0.757,0.618-1.249,0.618
			c-0.349,0-0.679-0.112-0.955-0.325c-0.687-0.527-0.815-1.514-0.288-2.2l8.058-10.172c0.629-0.818,1.613-1.303,2.638-1.303h0.471
			c1.046,0,1.921,0.401,2.52,1.131c0.692,0.846,0.952,2.021,0.712,3.227l-3.175,8.637l4.724,12.709
			c0.197,0.531,0.125,1.102-0.197,1.566C31.251,38.233,30.741,38.5,30.176,38.5z"/>
	</g>
	<g>
		<path style="fill:#4E7AB5;" d="M27.046,11c0.851,0,1.569,0.328,2.078,0.948c0.584,0.712,0.809,1.707,0.622,2.738l-3.104,8.462
			l-0.127,0.347l0.129,0.346l4.659,12.536c0.139,0.375,0.088,0.778-0.14,1.106C30.935,37.812,30.575,38,30.175,38
			c-0.497,0-0.95-0.313-1.125-0.778l-2.6-6.88l-0.048-0.127l-0.08-0.11l-3.969-5.424c-0.352-0.596-0.43-1.312-0.214-1.971
			l0.754-2.302l1.75-5.347l-3.486,4.417l-3.24,4.105C17.713,23.848,17.403,24,17.068,24c-0.237,0-0.461-0.077-0.65-0.221
			c-0.226-0.174-0.372-0.426-0.409-0.709c-0.037-0.283,0.038-0.564,0.203-0.779l8.071-10.189C24.814,11.412,25.65,11,26.52,11h0.175
			h0.296H27.046 M27.046,10h-0.055h-0.296H26.52c-1.187,0-2.306,0.552-3.029,1.492L15.429,21.67
			c-0.696,0.906-0.526,2.205,0.38,2.901C16.184,24.86,16.628,25,17.068,25c0.621,0,1.235-0.278,1.642-0.808l3.232-4.095
			l-0.754,2.302c-0.31,0.948-0.189,1.985,0.331,2.836l3.996,5.461l2.6,6.88C28.438,38.433,29.259,39,30.175,39
			c1.535,0,2.6-1.531,2.065-2.971l-4.659-12.536l3.132-8.539C31.225,12.391,29.66,10,27.046,10L27.046,10z"/>
	</g>
</g>
<g>
	<polygon style="fill:#8BB7F0;" points="21.051,17.907 26.575,17.907 26.575,12.762 25.194,12.762 	"/>
</g>
<g>
	<path style="fill:#F78F8F;" d="M3.605,35.407c-0.598-0.456-0.981-1.117-1.081-1.861c-0.1-0.745,0.097-1.483,0.554-2.08l4.564-5.976
		c0.536-0.702,1.352-1.105,2.237-1.105c0.62,0,1.21,0.2,1.704,0.578l3.139,2.397L6.743,37.805L3.605,35.407z"/>
	<g>
		<path style="fill:#C74343;" d="M9.88,24.885L9.88,24.885c0.51,0,0.994,0.164,1.401,0.475l2.741,2.094l-7.372,9.65L3.909,35.01
			c-0.491-0.375-0.806-0.919-0.888-1.531c-0.082-0.612,0.079-1.22,0.454-1.711l4.564-5.975C8.481,25.216,9.151,24.885,9.88,24.885
			 M9.88,23.885c-0.997,0-1.983,0.448-2.635,1.302L2.68,31.162c-1.111,1.454-0.832,3.533,0.621,4.643l3.536,2.701l8.586-11.239
			l-3.536-2.701C11.288,24.107,10.581,23.885,9.88,23.885L9.88,23.885z"/>
	</g>
</g>
<g>
	<circle style="fill:#DCD5F2;" cx="6.03" cy="36.5" r="2"/>
	<g>
		<path style="fill:#8B75A1;" d="M6.031,35c0.827,0,1.5,0.673,1.5,1.5S6.858,38,6.031,38s-1.5-0.673-1.5-1.5S5.203,35,6.031,35
			 M6.031,34c-1.381,0-2.5,1.119-2.5,2.5S4.65,39,6.031,39c1.381,0,2.5-1.119,2.5-2.5S7.411,34,6.031,34L6.031,34z"/>
	</g>
</g>
</svg>
