<?xml version="1.0" encoding="utf-8"?>
<!-- Generator: Adobe Illustrator 19.0.1, SVG Export Plug-In . SVG Version: 6.00 Build 0)  -->
<svg version="1.1" id="Layer_1" xmlns="http://www.w3.org/2000/svg" xmlns:xlink="http://www.w3.org/1999/xlink" x="0px" y="0px"
	 viewBox="855.7 194 369 407.3" style="enable-background:new 855.7 194 369 407.3;" xml:space="preserve">
<style type="text/css">
	.st0{fill:url(#SVGID_1_);}
	.st1{fill:#FFFFFF;}
</style>
<linearGradient id="SVGID_1_" gradientUnits="userSpaceOnUse" x1="1040.2252" y1="208.3242" x2="1040.2253" y2="591.3307" gradientTransform="matrix(1 0 0 -1 0 797.46)">
	<stop  offset="0" style="stop-color:#1BA94C"/>
	<stop  offset="1" style="stop-color:#32C766"/>
</linearGradient>
<path class="st0" d="M1213.7,398.1c0,29.1-1.6,58.1-4.9,87c-0.7,5.9-3.7,11.2-8.4,14.8c-0.4,0.3-0.8,0.6-1.2,0.9
	c-23.1,17.1-47.1,32.8-71.9,47.1c-25,14.4-50.8,27.5-77.3,39c-0.4,0.2-0.8,0.3-1.1,0.5c-0.1,0.1-0.3,0.1-0.4,0.2
	c-5.2,2.1-11,2.1-16.3,0c-0.5-0.2-1-0.4-1.5-0.7c0,0,0,0-0.1,0c-26.5-11.6-52.4-24.6-77.4-39.1c-24.9-14.3-48.9-30.1-72-47.1
	c-0.4-0.3-0.8-0.5-1.2-0.9c-4.7-3.6-7.7-8.9-8.4-14.8c-6.6-57.6-6.6-115.7-0.1-173.3c0.1-0.8,0.2-1.6,0.3-2.4
	c0.8-4.9,3.3-9.4,7-12.7c0,0,0.1-0.1,0.1-0.1c0.9-0.7,1.9-1.4,2.8-2.1c46.6-34.4,97-63.5,150.1-86.6c0.3-0.2,0.7-0.3,1-0.4
	c4.6-1.7,9.7-1.8,14.3-0.1c0.1,0,0.2,0,0.3,0.1c0.5,0.2,1.1,0.5,1.6,0.7c26.6,11.6,52.5,24.6,77.6,39.1c24.9,14.4,49,30.2,72.2,47.3
	c0.8,0.6,1.6,1.1,2.4,1.8c0.1,0,0.1,0.1,0.2,0.1c3.8,3.3,6.3,7.8,7.1,12.8c0.1,0.8,0.2,1.6,0.3,2.4
	C1212.2,340.4,1213.8,369.2,1213.7,398.1L1213.7,398.1z"/>
<path class="st1" d="M1115.9,471.7h-6.3V317.4c0-2.4-1.9-4.3-4.3-4.3c0,0,0,0,0,0h-32.1c-2.4,0-4.3,1.9-4.3,4.3c0,0,0,0,0,0v59.7
	h-57.3v-53.5h6.3c2.5,0,4.5-2,4.5-4.5c0-1.3-0.5-2.4-1.4-3.3L994.2,291c-1.7-1.6-4.4-1.6-6.1,0l-26.7,24.8c-1.8,1.7-1.9,4.5-0.2,6.3
	c0.8,0.9,2,1.4,3.3,1.4h6.3v154.2c0,2.4,1.9,4.3,4.3,4.3h32.1c2.4,0,4.3-1.9,4.3-4.3v-59.7h57.3v53.5h-6.3c-2.5,0-4.5,2-4.5,4.5
	c0,1.3,0.5,2.4,1.4,3.3l26.7,24.8c1.7,1.6,4.4,1.6,6.1,0l26.7-24.8c1.8-1.7,1.9-4.5,0.2-6.3C1118.3,472.2,1117.1,471.7,1115.9,471.7
	z"/>
</svg>
